<svg version="1.1" id="Layer_1" xmlns="http://www.w3.org/2000/svg" xmlns:xlink="http://www.w3.org/1999/xlink" x="0px" y="0px"
	 width="100%" viewBox="0 0 500 500" enable-background="new 0 0 500 500" xml:space="preserve">
<path fill="#000000" opacity="1.000000" stroke="none" 
	d="
M283.000000,501.000000 
	C188.666687,501.000000 94.833382,501.000000 1.000050,501.000000 
	C1.000034,334.333405 1.000034,167.666794 1.000017,1.000140 
	C167.666565,1.000093 334.333130,1.000093 500.999756,1.000047 
	C500.999847,167.666519 500.999847,334.333038 500.999939,500.999786 
	C428.500000,501.000000 356.000000,501.000000 283.000000,501.000000 
M228.767197,200.023605 
	C231.916824,198.375290 235.127167,196.829285 238.179764,195.017502 
	C239.119217,194.459915 240.303833,193.053360 240.159119,192.256592 
	C239.985580,191.301147 238.478836,189.851776 237.603607,189.889038 
	C234.075165,190.039291 230.567627,190.680069 226.350266,190.884842 
	C223.729752,190.420914 221.109238,189.956985 218.087112,189.421967 
	C218.436981,193.210541 218.703903,196.100891 218.419708,199.368423 
	C214.903183,204.042282 211.386658,208.716125 207.482773,213.904831 
	C204.967499,205.008926 207.250076,197.571838 210.427353,190.649231 
	C203.296921,190.166351 197.164246,189.719955 191.026169,189.367493 
	C190.057831,189.311890 188.949936,189.465530 188.114441,189.911682 
	C187.188004,190.406418 185.981018,191.272812 185.859222,192.116409 
	C185.745255,192.905853 186.792175,193.967987 187.505081,194.748550 
	C188.768417,196.131836 191.277817,197.357483 191.320709,198.710709 
	C191.544601,205.775909 193.287155,213.247482 188.089584,218.966354 
	C189.236145,221.287903 190.934708,223.343033 191.212372,225.574921 
	C191.805893,230.345917 191.678284,235.208008 191.818222,240.033585 
	C191.910904,243.229950 191.317627,245.940430 187.690872,247.121155 
	C186.667633,247.454300 185.982697,248.826538 185.142578,249.722168 
	C186.151993,250.448029 187.129044,251.747238 188.176086,251.806381 
	C194.804031,252.180588 201.442886,250.649002 208.111267,251.949158 
	C209.009842,252.124359 210.764740,250.964081 211.097305,250.049271 
	C211.379501,249.272980 210.436417,247.659851 209.591736,246.932007 
	C205.603683,243.495605 204.913864,230.703796 208.670074,226.794449 
	C208.802612,226.656525 209.243423,226.814789 209.463196,226.829742 
	C212.264816,234.119751 215.046997,241.359146 217.945724,249.262573 
	C223.865143,257.265198 229.784561,265.267792 235.716629,273.287537 
	C208.375626,278.879791 180.522537,282.012115 152.292664,278.350464 
	C148.136581,277.811401 143.837982,276.307495 140.226913,274.189972 
	C136.338333,271.909698 136.662109,268.265076 140.012955,265.889954 
	C140.970551,265.211182 141.620575,264.098480 142.411636,263.184784 
	C141.209671,262.201324 139.898422,260.266846 138.823669,260.390350 
	C132.337311,261.135803 125.907501,261.353210 119.457092,260.219391 
	C119.151878,260.165741 118.793739,260.294250 118.483864,260.404358 
	C115.447144,261.483582 115.117523,263.646698 117.574387,265.876984 
	C119.541664,267.662811 121.533875,269.440186 123.332474,271.389709 
	C132.681961,281.523804 144.149231,285.994568 157.990570,286.232605 
	C183.952896,286.679108 209.519699,284.426605 234.612350,277.611816 
	C239.190506,276.368439 243.023346,276.559143 246.983368,279.958405 
	C251.626205,283.943756 256.941528,287.198059 262.168518,290.441772 
	C289.411926,307.348267 318.455963,316.680084 350.938019,311.003754 
	C361.476959,309.162079 371.922974,306.912750 380.281738,299.560333 
	C387.915771,292.845367 388.855499,282.211945 381.232452,275.485626 
	C375.795898,270.688568 368.998718,266.147339 362.106171,264.578674 
	C350.888306,262.025574 338.994263,260.468353 327.568054,261.229584 
	C305.879608,262.674530 284.305756,265.945190 262.719849,268.732635 
	C258.562622,269.269501 255.361664,268.970062 251.709869,266.402374 
	C241.180618,258.998901 233.751236,249.210739 227.785263,237.281281 
	C227.111694,235.238007 226.502380,233.170761 225.751373,231.156357 
	C224.119659,226.779526 221.075500,222.539795 225.032501,217.993164 
	C223.244461,216.784195 221.827408,215.826080 220.929688,215.219086 
	C223.157852,210.836349 225.141602,206.934372 227.745743,202.743011 
	C227.836349,201.850967 227.926956,200.958939 228.767197,200.023605 
M249.777130,223.512604 
	C249.860901,229.816101 250.073746,236.123001 249.908554,242.419968 
	C249.879089,243.543655 248.314453,244.653198 247.401886,245.720764 
	C246.337677,246.965683 245.211121,248.157318 244.111618,249.372070 
	C245.808105,250.175247 247.735992,251.949417 249.160217,251.610046 
	C254.712479,250.286942 260.110535,250.245773 265.585663,251.687576 
	C266.038116,251.806717 266.652649,251.762115 267.053406,251.541748 
	C268.295044,250.858932 269.469818,250.054489 270.670532,249.297256 
	C269.834259,248.209137 268.975647,247.137314 268.166656,246.029282 
	C266.798096,244.154861 264.427185,242.318039 264.312408,240.358002 
	C264.017365,235.319183 264.728424,230.221436 265.045441,225.015717 
	C268.118500,225.015717 270.617035,225.184357 273.086060,224.985855 
	C282.686646,224.214020 289.586182,218.008240 290.121429,209.810165 
	C290.777405,199.762070 285.330353,192.678238 275.032623,190.868011 
	C271.680328,190.278702 268.024994,190.286407 264.700226,190.963562 
	C260.878235,191.741974 257.493622,192.819595 253.646027,190.570755 
	C251.880493,189.538834 249.077682,189.983688 246.803955,190.253510 
	C245.774628,190.375671 244.888382,191.703506 243.937225,192.484390 
	C244.700851,193.395340 245.425888,194.342453 246.237320,195.208618 
	C247.403488,196.453476 249.617569,197.596924 249.671967,198.857559 
	C249.981384,206.026672 253.215897,213.822739 245.689285,219.732162 
	C247.033188,220.962875 248.110809,221.949768 249.777130,223.512604 
z"/>
<path fill="#F5A203" opacity="1.000000" stroke="none" 
	d="
M227.831665,238.043121 
	C233.751236,249.210739 241.180618,258.998901 251.709869,266.402374 
	C255.361664,268.970062 258.562622,269.269501 262.719849,268.732635 
	C284.305756,265.945190 305.879608,262.674530 327.568054,261.229584 
	C338.994263,260.468353 350.888306,262.025574 362.106171,264.578674 
	C368.998718,266.147339 375.795898,270.688568 381.232452,275.485626 
	C388.855499,282.211945 387.915771,292.845367 380.281738,299.560333 
	C371.922974,306.912750 361.476959,309.162079 350.938019,311.003754 
	C318.455963,316.680084 289.411926,307.348267 262.168518,290.441772 
	C256.941528,287.198059 251.626205,283.943756 246.983368,279.958405 
	C243.023346,276.559143 239.190506,276.368439 234.612350,277.611816 
	C209.519699,284.426605 183.952896,286.679108 157.990570,286.232605 
	C144.149231,285.994568 132.681961,281.523804 123.332474,271.389709 
	C121.533875,269.440186 119.541664,267.662811 117.574387,265.876984 
	C115.117523,263.646698 115.447144,261.483582 118.483864,260.404358 
	C118.793739,260.294250 119.151878,260.165741 119.457092,260.219391 
	C125.907501,261.353210 132.337311,261.135803 138.823669,260.390350 
	C139.898422,260.266846 141.209671,262.201324 142.411636,263.184784 
	C141.620575,264.098480 140.970551,265.211182 140.012955,265.889954 
	C136.662109,268.265076 136.338333,271.909698 140.226913,274.189972 
	C143.837982,276.307495 148.136581,277.811401 152.292664,278.350464 
	C180.522537,282.012115 208.375626,278.879791 235.716629,273.287537 
	C229.784561,265.267792 223.865143,257.265198 217.945206,248.540863 
	C221.240341,244.560471 224.536011,241.301804 227.831665,238.043121 
M354.111542,266.182587 
	C340.461395,263.100281 326.645508,263.276337 312.895355,264.811462 
	C295.804016,266.719604 278.784088,269.267517 261.733337,271.539093 
	C261.675446,272.014587 261.617584,272.490051 261.559692,272.965546 
	C266.920166,276.178009 272.327209,279.315552 277.632874,282.616150 
	C298.361969,295.511597 320.703644,302.483704 345.311035,301.051941 
	C354.346466,300.526245 363.207062,299.025604 370.970306,293.964172 
	C379.044098,288.700226 379.920532,280.370911 372.209930,274.674866 
	C367.162598,270.946228 360.730896,269.091583 354.111542,266.182587 
z"/>
<path fill="#F2A004" opacity="1.000000" stroke="none" 
	d="
M227.808472,237.662201 
	C224.536011,241.301804 221.240341,244.560471 217.886932,248.208832 
	C215.046997,241.359146 212.264816,234.119751 209.463196,226.829742 
	C209.243423,226.814789 208.802612,226.656525 208.670074,226.794449 
	C204.913864,230.703796 205.603683,243.495605 209.591736,246.932007 
	C210.436417,247.659851 211.379501,249.272980 211.097305,250.049271 
	C210.764740,250.964081 209.009842,252.124359 208.111267,251.949158 
	C201.442886,250.649002 194.804031,252.180588 188.176086,251.806381 
	C187.129044,251.747238 186.151993,250.448029 185.142578,249.722168 
	C185.982697,248.826538 186.667633,247.454300 187.690872,247.121155 
	C191.317627,245.940430 191.910904,243.229950 191.818222,240.033585 
	C191.678284,235.208008 191.805893,230.345917 191.212372,225.574921 
	C190.934708,223.343033 189.236145,221.287903 188.089584,218.966354 
	C193.287155,213.247482 191.544601,205.775909 191.320709,198.710709 
	C191.277817,197.357483 188.768417,196.131836 187.505081,194.748550 
	C186.792175,193.967987 185.745255,192.905853 185.859222,192.116409 
	C185.981018,191.272812 187.188004,190.406418 188.114441,189.911682 
	C188.949936,189.465530 190.057831,189.311890 191.026169,189.367493 
	C197.164246,189.719955 203.296921,190.166351 210.427353,190.649231 
	C207.250076,197.571838 204.967499,205.008926 207.482773,213.904831 
	C211.386658,208.716125 214.903183,204.042282 218.933044,199.081726 
	C220.922714,199.297668 222.399017,199.800308 224.414307,200.486450 
	C222.361542,201.209015 221.099670,201.653198 219.837814,202.097366 
	C220.410629,202.718124 220.983444,203.338882 221.556259,203.959656 
	C223.412628,203.650574 225.268997,203.341492 227.125366,203.032410 
	C225.141602,206.934372 223.157852,210.836349 220.929688,215.219086 
	C221.827408,215.826080 223.244461,216.784195 225.032501,217.993164 
	C221.075500,222.539795 224.119659,226.779526 225.751373,231.156357 
	C226.502380,233.170761 227.111694,235.238007 227.808472,237.662201 
M197.765961,198.260132 
	C196.869354,198.260132 195.972763,198.260132 195.076157,198.260132 
	C195.149765,198.705521 195.223373,199.150909 195.296982,199.596298 
	C196.168839,199.350769 197.040680,199.105255 197.856430,199.584732 
	C193.784439,205.275787 194.583649,210.574158 199.597595,215.335449 
	C200.105072,215.050735 201.058228,214.515991 202.065704,214.073654 
	C202.065704,214.073654 201.981049,214.012314 202.057755,213.427551 
	C201.269562,212.072159 200.481369,210.716766 200.122360,210.099411 
	C201.134537,207.549744 202.915146,205.264694 202.500046,203.494537 
	C202.080338,201.704773 199.486038,200.424942 197.765961,198.260132 
M219.488861,203.159882 
	C219.488861,203.159882 219.578812,202.882462 219.578812,202.882462 
	C219.578812,202.882462 219.375198,203.058029 219.488861,203.159882 
z"/>
<path fill="#F09F04" opacity="1.000000" stroke="none" 
	d="
M249.482788,223.224625 
	C248.110809,221.949768 247.033188,220.962875 245.689285,219.732162 
	C253.215897,213.822739 249.981384,206.026672 249.671967,198.857559 
	C249.617569,197.596924 247.403488,196.453476 246.237320,195.208618 
	C245.425888,194.342453 244.700851,193.395340 243.937225,192.484375 
	C244.888382,191.703506 245.774628,190.375671 246.803955,190.253510 
	C249.077682,189.983688 251.880493,189.538834 253.646027,190.570755 
	C257.493622,192.819595 260.878235,191.741974 264.700226,190.963562 
	C268.024994,190.286407 271.680328,190.278702 275.032623,190.868011 
	C285.330353,192.678238 290.777405,199.762070 290.121429,209.810165 
	C289.586182,218.008240 282.686646,224.214020 273.086060,224.985855 
	C270.617035,225.184357 268.118500,225.015717 265.045441,225.015717 
	C264.728424,230.221436 264.017365,235.319183 264.312408,240.358002 
	C264.427185,242.318039 266.798096,244.154861 268.166656,246.029282 
	C268.975647,247.137314 269.834259,248.209137 270.670532,249.297256 
	C269.469818,250.054489 268.295044,250.858932 267.053406,251.541748 
	C266.652649,251.762115 266.038116,251.806717 265.585663,251.687576 
	C260.110535,250.245773 254.712479,250.286942 249.160217,251.610046 
	C247.735992,251.949417 245.808105,250.175247 244.111618,249.372070 
	C245.211121,248.157318 246.337677,246.965683 247.401886,245.720764 
	C248.314453,244.653198 249.879089,243.543655 249.908554,242.419968 
	C250.073746,236.123001 249.860901,229.816101 249.482788,223.224625 
M255.998230,217.997971 
	C255.998230,217.997971 255.989502,218.063477 256.642456,218.297882 
	C257.100342,218.346436 257.558197,218.394974 257.946167,218.994019 
	C258.711487,218.809692 260.065552,218.762161 260.145386,218.418549 
	C260.620239,216.375137 260.800354,214.263245 261.073486,211.418518 
	C260.077393,210.133743 259.081268,208.848953 258.073608,207.624634 
	C258.073608,207.624634 258.130035,207.652985 258.570160,207.322037 
	C258.571594,207.138489 258.572998,206.954926 259.071808,206.221359 
	C259.020691,204.902451 258.969604,203.583542 258.918488,202.264618 
	C258.245239,202.805389 257.571991,203.346146 256.245453,204.034912 
	C255.298431,204.552216 254.351395,205.069504 252.706009,206.020035 
	C249.942398,209.982285 250.647751,214.543427 254.789001,218.533325 
	C255.213303,218.360779 255.637604,218.188232 255.998230,217.997971 
M266.662842,217.054749 
	C269.835815,217.102829 273.737488,217.595306 274.465820,213.578201 
	C275.215302,209.444275 275.083618,205.015427 274.469238,200.843506 
	C274.257324,199.404556 271.573395,197.728867 269.758942,197.323303 
	C268.390839,197.017502 265.244690,198.532150 265.227661,199.289078 
	C265.095154,205.182220 265.529572,211.088120 266.662842,217.054749 
M279.104553,200.509415 
	C279.533539,203.376724 279.962524,206.244034 280.417419,209.284515 
	C281.673553,209.173965 282.939850,209.062515 284.148041,208.956192 
	C284.660583,206.346359 285.124695,203.983063 285.455261,202.299927 
	C284.236145,200.936279 283.512299,199.547043 282.396454,199.064896 
	C281.530243,198.690567 280.174774,199.448441 279.104553,200.509415 
z"/>
<path fill="#D48E08" opacity="1.000000" stroke="none" 
	d="
M227.435547,202.887711 
	C225.268997,203.341492 223.412628,203.650574 221.556259,203.959656 
	C220.983444,203.338882 220.410629,202.718124 219.837814,202.097366 
	C221.099670,201.653198 222.361542,201.209015 224.414307,200.486450 
	C222.399017,199.800308 220.922714,199.297668 219.208618,198.893127 
	C218.703903,196.100891 218.436981,193.210541 218.087112,189.421967 
	C221.109238,189.956985 223.729752,190.420914 226.766815,191.325226 
	C228.599380,193.569595 230.015381,195.373596 231.338455,197.059219 
	C230.136215,198.148071 229.076889,199.107483 228.017563,200.066895 
	C227.926956,200.958939 227.836349,201.850967 227.435547,202.887711 
z"/>
<path fill="#F09F04" opacity="1.000000" stroke="none" 
	d="
M228.392380,200.045258 
	C229.076889,199.107483 230.136215,198.148071 231.338455,197.059219 
	C230.015381,195.373596 228.599380,193.569595 227.117874,191.452637 
	C230.567627,190.680069 234.075165,190.039291 237.603607,189.889038 
	C238.478836,189.851776 239.985580,191.301147 240.159119,192.256592 
	C240.303833,193.053360 239.119217,194.459915 238.179764,195.017502 
	C235.127167,196.829285 231.916824,198.375290 228.392380,200.045258 
z"/>
<path fill="#020201" opacity="1.000000" stroke="none" 
	d="
M354.515381,266.290100 
	C360.730896,269.091583 367.162598,270.946228 372.209930,274.674866 
	C379.920532,280.370911 379.044098,288.700226 370.970306,293.964172 
	C363.207062,299.025604 354.346466,300.526245 345.311035,301.051941 
	C320.703644,302.483704 298.361969,295.511597 277.632874,282.616150 
	C272.327209,279.315552 266.920166,276.178009 261.559692,272.965546 
	C261.617584,272.490051 261.675446,272.014587 261.733337,271.539093 
	C278.784088,269.267517 295.804016,266.719604 312.895355,264.811462 
	C326.645508,263.276337 340.461395,263.100281 354.515381,266.290100 
z"/>
<path fill="#CB8B0A" opacity="1.000000" stroke="none" 
	d="
M202.011383,213.981232 
	C201.058228,214.515991 200.105072,215.050735 199.597595,215.335449 
	C194.583649,210.574158 193.784439,205.275787 197.887238,199.259521 
	C197.918060,198.934326 197.844330,198.921722 197.844330,198.921722 
	C199.486038,200.424942 202.080338,201.704773 202.500046,203.494537 
	C202.915146,205.264694 201.134537,207.549744 200.122360,210.099411 
	C200.481369,210.716766 201.269562,212.072159 202.028366,213.713501 
	C201.998978,213.999435 202.011383,213.981232 202.011383,213.981232 
z"/>
<path fill="#020201" opacity="1.000000" stroke="none" 
	d="
M197.915298,198.897034 
	C197.040680,199.105255 196.168839,199.350769 195.296982,199.596298 
	C195.223373,199.150909 195.149765,198.705521 195.076157,198.260132 
	C195.972763,198.260132 196.869354,198.260132 197.805145,198.590927 
	C197.844330,198.921722 197.918060,198.934326 197.915298,198.897034 
z"/>
<path fill="#D48E08" opacity="1.000000" stroke="none" 
	d="
M219.432037,203.108948 
	C219.375198,203.058029 219.578812,202.882462 219.578812,202.882462 
	C219.578812,202.882462 219.488861,203.159882 219.432037,203.108948 
z"/>
<path fill="#CB8B0A" opacity="1.000000" stroke="none" 
	d="
M201.990021,214.005875 
	C201.981049,214.012314 202.065704,214.073654 202.038544,214.027435 
	C202.011383,213.981232 201.998978,213.999435 201.990021,214.005875 
z"/>
<path fill="#100B03" opacity="1.000000" stroke="none" 
	d="
M266.225800,217.022400 
	C265.529572,211.088120 265.095154,205.182220 265.227661,199.289078 
	C265.244690,198.532150 268.390839,197.017502 269.758942,197.323303 
	C271.573395,197.728867 274.257324,199.404556 274.469238,200.843506 
	C275.083618,205.015427 275.215302,209.444275 274.465820,213.578201 
	C273.737488,217.595306 269.835815,217.102829 266.225800,217.022400 
z"/>
<path fill="#5D4411" opacity="1.000000" stroke="none" 
	d="
M279.070679,200.106232 
	C280.174774,199.448441 281.530243,198.690567 282.396454,199.064896 
	C283.512299,199.547043 284.236145,200.936279 285.455261,202.299927 
	C285.124695,203.983063 284.660583,206.346359 284.148041,208.956192 
	C282.939850,209.062515 281.673553,209.173965 280.417419,209.284515 
	C279.962524,206.244034 279.533539,203.376724 279.070679,200.106232 
z"/>
<path fill="#D48E08" opacity="1.000000" stroke="none" 
	d="
M254.555130,217.977249 
	C250.647751,214.543427 249.942398,209.982285 253.028625,205.885590 
	C253.351257,205.751144 253.180023,205.750351 253.137573,206.140457 
	C253.087219,206.790512 253.079315,207.050461 253.143707,207.654999 
	C253.825882,209.333023 254.435776,210.666458 255.053482,212.426086 
	C255.029877,213.416672 254.998459,213.981018 254.978531,214.522888 
	C254.990036,214.500381 254.956558,214.462524 255.164276,214.783951 
	C256.256348,215.585175 257.140717,216.064972 258.038269,216.518768 
	C258.051453,216.492752 258.011017,216.450745 257.707947,216.623932 
	C256.933075,217.219238 256.461273,217.641357 255.989502,218.063477 
	C255.989502,218.063477 255.998230,217.997971 255.654785,217.941467 
	C255.059280,217.915710 254.807205,217.946472 254.555130,217.977249 
z"/>
<path fill="#CB8B0A" opacity="1.000000" stroke="none" 
	d="
M258.011017,216.450745 
	C258.011017,216.450745 258.051453,216.492752 257.924805,216.137451 
	C256.850983,215.342270 255.903763,214.902390 254.956558,214.462524 
	C254.956558,214.462524 254.990036,214.500381 255.286407,214.300674 
	C257.415009,213.458771 259.247223,212.816574 261.079468,212.174362 
	C260.800354,214.263245 260.620239,216.375137 260.145386,218.418549 
	C260.065552,218.762161 258.711487,218.809692 258.055481,218.220154 
	C258.113556,217.114456 258.062286,216.782593 258.011017,216.450745 
z"/>
<path fill="#5D4411" opacity="1.000000" stroke="none" 
	d="
M261.076477,211.796448 
	C259.247223,212.816574 257.415009,213.458771 255.274902,214.323181 
	C254.998459,213.981018 255.029877,213.416672 255.034363,212.435638 
	C255.007416,212.018951 254.974030,212.046463 255.209045,211.958099 
	C255.606354,211.591171 255.768646,211.312622 256.128265,210.809525 
	C256.561554,210.038879 256.797485,209.492767 257.302002,208.803558 
	C257.742126,208.295029 257.913635,207.929611 258.085175,207.564178 
	C259.081268,208.848953 260.077393,210.133743 261.076477,211.796448 
z"/>
<path fill="#100B03" opacity="1.000000" stroke="none" 
	d="
M256.898743,203.886902 
	C257.571991,203.346146 258.245239,202.805389 258.918488,202.264618 
	C258.969604,203.583542 259.020691,204.902451 258.517151,206.195465 
	C257.607910,205.408691 257.253326,204.647797 256.898743,203.886902 
z"/>
<path fill="#5D4411" opacity="1.000000" stroke="none" 
	d="
M256.572083,203.960907 
	C257.253326,204.647797 257.607910,205.408691 258.268433,206.470490 
	C258.572998,206.954926 258.571594,207.138489 257.979919,207.325378 
	C256.590118,207.207260 255.790604,207.085800 255.008362,206.982635 
	C255.025635,207.000931 255.062714,207.034958 254.876068,206.795349 
	C254.186295,206.287277 253.683151,206.018814 253.180023,205.750351 
	C253.180023,205.750351 253.351257,205.751144 253.377808,205.668976 
	C254.351395,205.069504 255.298431,204.552216 256.572083,203.960907 
z"/>
<path fill="#CB8B0A" opacity="1.000000" stroke="none" 
	d="
M254.991089,206.964355 
	C255.790604,207.085800 256.590118,207.207260 257.759827,207.490845 
	C258.130035,207.652985 258.073608,207.624634 258.079407,207.594406 
	C257.913635,207.929611 257.742126,208.295029 257.157135,208.545532 
	C256.168762,208.316483 255.593857,208.202347 254.990509,207.807770 
	C254.971756,207.339661 254.981430,207.151993 254.991089,206.964355 
z"/>
<path fill="#5D4411" opacity="1.000000" stroke="none" 
	d="
M257.707947,216.623932 
	C258.062286,216.782593 258.113556,217.114456 258.090454,217.944916 
	C257.558197,218.394974 257.100342,218.346436 256.315979,218.180679 
	C256.461273,217.641357 256.933075,217.219238 257.707947,216.623932 
z"/>
<path fill="#5D4411" opacity="1.000000" stroke="none" 
	d="
M254.672058,218.255280 
	C254.807205,217.946472 255.059280,217.915710 255.686615,217.950317 
	C255.637604,218.188232 255.213303,218.360779 254.672058,218.255280 
z"/>
<path fill="#5D4411" opacity="1.000000" stroke="none" 
	d="
M255.008362,206.982635 
	C254.981430,207.151993 254.971756,207.339661 254.979691,207.763367 
	C254.997284,207.999390 255.085846,207.976746 254.782440,208.150558 
	C254.684952,209.211533 254.890854,210.098709 255.063431,210.982697 
	C255.030106,210.979507 255.052414,210.916382 254.948303,211.193039 
	C254.887466,211.661957 254.930740,211.854218 254.974030,212.046463 
	C254.974030,212.046463 255.007416,212.018951 255.026535,212.009415 
	C254.435776,210.666458 253.825882,209.333023 253.466736,207.553864 
	C254.165878,207.083740 254.614304,207.059341 255.062714,207.034958 
	C255.062714,207.034958 255.025635,207.000931 255.008362,206.982635 
z"/>
<path fill="#5D4411" opacity="1.000000" stroke="none" 
	d="
M255.164276,214.783951 
	C255.903763,214.902390 256.850983,215.342270 257.911621,216.163452 
	C257.140717,216.064972 256.256348,215.585175 255.164276,214.783951 
z"/>
<path fill="#F09F04" opacity="1.000000" stroke="none" 
	d="
M254.876068,206.795349 
	C254.614304,207.059341 254.165878,207.083740 253.394440,207.209259 
	C253.079315,207.050461 253.087219,206.790512 253.137573,206.140457 
	C253.683151,206.018814 254.186295,206.287277 254.876068,206.795349 
z"/>
<path fill="#100B03" opacity="1.000000" stroke="none" 
	d="
M255.008118,208.043793 
	C255.593857,208.202347 256.168762,208.316483 256.888550,208.688629 
	C256.797485,209.492767 256.561554,210.038879 255.912506,210.752563 
	C255.499435,210.920151 255.052414,210.916382 255.052414,210.916382 
	C255.052414,210.916382 255.030106,210.979507 255.172211,210.601196 
	C255.238159,209.474167 255.162003,208.725449 255.085846,207.976746 
	C255.085846,207.976746 254.997284,207.999390 255.008118,208.043793 
z"/>
<path fill="#D48E08" opacity="1.000000" stroke="none" 
	d="
M254.948303,211.193039 
	C255.052414,210.916382 255.499435,210.920151 255.715179,210.977112 
	C255.768646,211.312622 255.606354,211.591171 255.209045,211.958099 
	C254.930740,211.854218 254.887466,211.661957 254.948303,211.193039 
z"/>
<path fill="#CB8B0A" opacity="1.000000" stroke="none" 
	d="
M254.782440,208.150558 
	C255.162003,208.725449 255.238159,209.474167 255.205536,210.604370 
	C254.890854,210.098709 254.684952,209.211533 254.782440,208.150558 
z"/>
</svg>