<svg version="1.1" id="Layer_1" xmlns="http://www.w3.org/2000/svg" xmlns:xlink="http://www.w3.org/1999/xlink" x="0px" y="0px"
	 width="100%" viewBox="0 0 481 220" enable-background="new 0 0 481 220" xml:space="preserve">
<path fill="#090B09" opacity="1.000000" stroke="none" 
	d="
M244.000000,1.000003 
	C301.354218,1.000000 358.708466,1.000000 416.527069,1.385403 
	C416.845123,2.916847 416.619141,4.059284 416.567108,5.209589 
	C416.395599,9.000670 418.096954,11.627640 421.777069,12.622197 
	C425.577698,13.649324 428.753723,11.892415 429.696869,8.499348 
	C430.301270,6.324790 428.643616,3.521462 428.000000,1.000000 
	C445.946259,1.000000 463.892548,1.000000 482.000000,1.000000 
	C482.000000,31.687387 482.000000,62.375034 481.657562,93.600891 
	C477.978363,94.756020 474.641632,95.372932 470.683563,96.104729 
	C473.009552,100.786339 477.766785,104.171822 482.000000,108.000000 
	C482.000000,127.020897 482.000000,146.041794 481.623352,165.593658 
	C479.117798,162.453568 477.329620,158.525085 474.790436,155.163986 
	C469.160828,147.712189 460.987061,143.584702 452.858826,139.081406 
	C450.627106,130.901306 459.172241,134.012573 462.192719,130.122330 
	C456.923035,127.715088 452.367676,125.496666 447.679932,123.606453 
	C446.719879,123.219345 444.817657,123.682449 444.166656,124.448166 
	C443.558716,125.163216 443.750549,126.888176 444.092255,128.016632 
	C444.996460,131.002441 446.172424,133.905930 446.816101,136.785736 
	C434.891205,134.316071 423.493896,130.880646 411.868011,129.704834 
	C388.487976,127.340286 365.032654,128.595261 341.668915,131.004807 
	C329.447876,132.265182 317.236816,133.622437 305.100830,134.553741 
	C305.645599,131.764603 306.110748,129.357666 306.562317,127.020966 
	C314.550446,126.450928 317.069489,124.401505 315.552704,119.616707 
	C314.333191,120.161728 313.143616,120.693382 312.677155,120.901855 
	C312.179260,118.436028 312.140411,116.020348 311.105713,114.157906 
	C310.660339,113.356293 307.212921,113.009308 306.742950,113.646294 
	C304.793304,116.288818 303.459595,119.385773 301.405548,123.244270 
	C299.075653,123.374237 295.117859,123.589027 291.161011,123.819687 
	C290.097778,123.881676 289.037323,123.991966 287.975616,124.080086 
	C288.330048,125.227882 288.397278,126.604645 289.094482,127.479187 
	C290.948212,129.804428 293.073578,131.913132 294.681091,134.059296 
	C286.446930,132.350754 285.782715,132.617950 282.535645,138.746094 
	C279.372345,139.450150 276.582214,139.989563 273.382202,140.538025 
	C271.637054,140.826050 270.301758,141.105042 268.671326,141.337677 
	C267.628784,141.545166 266.881348,141.799026 265.710724,142.013123 
	C261.700714,142.613678 258.133575,143.500687 254.518723,143.788895 
	C252.747192,143.930130 250.612091,143.388992 249.108307,142.427017 
	C227.902588,128.861710 211.958176,110.582291 200.810028,87.662529 
	C199.290833,83.148560 197.803391,79.012177 196.272079,74.494263 
	C194.088593,67.037514 188.658005,60.067532 195.542694,52.688927 
	C195.691559,52.529358 195.528580,52.078812 195.506180,51.676193 
	C192.714600,50.126205 189.888535,48.557076 187.236069,47.084339 
	C191.090652,41.440987 194.603394,36.210400 198.206467,31.042797 
	C204.122910,22.557301 210.096207,14.198186 220.684860,10.769072 
	C223.800049,9.760229 224.070801,5.667687 221.497757,3.452609 
	C220.423889,2.528135 219.171310,1.811266 218.000000,1.000003 
	C223.354935,1.000000 228.709854,1.000000 234.953827,1.208229 
	C235.264084,1.899324 234.660629,2.355803 234.111191,2.870029 
	C232.483765,4.393157 230.877686,5.939068 229.263245,7.476065 
	C230.952728,8.963229 232.433578,11.291327 234.372681,11.772441 
	C239.264618,12.986190 239.673477,16.577206 240.084244,20.918011 
	C240.037735,25.312677 240.037735,29.201153 240.037735,34.137630 
	C236.746536,31.990259 234.681793,30.643101 232.617035,29.295944 
	C232.251038,29.533117 231.885040,29.770292 231.519043,30.007465 
	C232.074539,32.048306 232.630035,34.089149 233.185516,36.129990 
	C232.814331,35.984459 232.443161,35.838932 232.071976,35.693401 
	C230.556183,39.432590 229.040390,43.171780 227.396194,47.227707 
	C227.572006,47.211651 227.062958,47.375275 226.606750,47.281582 
	C222.341919,46.405670 219.467163,48.585934 218.743301,52.289680 
	C218.332962,54.389271 219.609940,57.524456 221.196014,59.150448 
	C223.879349,61.901333 227.151871,61.397564 230.032852,58.620457 
	C230.935181,57.750656 232.341949,57.404171 233.799133,56.973392 
	C240.295029,60.362904 241.635345,65.593643 240.995148,72.194069 
	C240.354553,78.798836 240.250458,85.500748 240.524567,92.134727 
	C240.740463,97.359818 239.116440,100.549896 234.061478,102.464478 
	C232.230637,103.157913 231.133148,105.787514 229.701019,107.533630 
	C231.639786,109.019081 233.573639,111.739479 235.518250,111.747192 
	C240.403015,111.766586 245.282104,110.471603 250.185303,109.886681 
	C252.258179,109.639404 254.412766,109.638237 256.483185,109.898766 
	C261.058167,110.474464 265.611328,111.837265 270.157349,111.771339 
	C272.438141,111.738266 275.809845,109.785072 276.696747,107.807266 
	C278.252289,104.338280 274.603821,103.046211 272.033600,102.084938 
	C267.751526,100.483406 265.325531,97.423782 265.392426,93.087753 
	C265.537292,83.692024 266.160065,74.303665 266.568054,65.338112 
	C273.603821,64.832703 279.961426,64.904701 286.118408,63.828770 
	C301.073547,61.215359 310.873657,50.541550 311.758728,36.692337 
	C312.711731,21.779747 304.341614,9.526381 289.603729,5.019935 
	C277.912292,1.445009 266.370880,1.950074 256.307526,7.334600 
	C252.225052,5.711714 248.745834,4.398794 245.343063,2.911036 
	C244.733398,2.644474 244.439621,1.655450 244.000000,1.000003 
M355.648499,81.918388 
	C356.876099,80.354370 358.103699,78.790352 359.331268,77.226334 
	C359.088928,77.069244 358.846558,76.912148 358.604218,76.755051 
	C360.447784,75.910210 362.291351,75.065361 364.134918,74.220512 
	C364.275391,73.581886 364.415863,72.943253 364.556335,72.304626 
	C358.114746,74.008255 357.210480,68.770752 354.469574,64.619347 
	C353.449646,67.530373 352.850800,69.239502 352.259216,70.927963 
	C351.716980,70.752037 351.546387,70.726372 351.406464,70.646835 
	C349.281830,69.439194 347.161255,68.224495 345.039703,67.011444 
	C346.029846,69.343414 347.019989,71.675377 347.268677,74.074783 
	C341.239532,74.978790 342.495331,80.322075 341.398895,84.067245 
	C334.249908,84.760994 331.089752,87.000725 331.203522,91.150452 
	C331.295197,94.493050 334.622681,97.842773 337.943939,97.935944 
	C342.671448,98.068565 344.493835,95.517395 345.155457,87.647400 
	C349.874390,88.343185 353.727844,87.352959 355.648499,81.918388 
M422.207062,16.423075 
	C417.922852,13.864827 413.707642,11.176428 409.304718,8.842152 
	C408.237579,8.276404 405.821655,8.359500 405.319855,9.064778 
	C404.558594,10.134826 404.437653,12.187988 404.915161,13.508799 
	C406.147095,16.916422 407.771301,20.195082 409.430084,23.427078 
	C409.883667,24.310856 411.013062,24.847778 411.832306,25.543888 
	C412.341553,24.516050 413.197571,23.520256 413.296051,22.454466 
	C413.610870,19.047415 415.114807,17.351114 418.702972,17.650099 
	C419.753906,17.737667 420.854797,17.226070 422.207062,16.423075 
M465.524078,116.004997 
	C462.759674,113.887161 461.150238,110.027306 457.388489,109.589188 
	C457.018860,112.795631 456.968750,115.305687 456.400879,117.692551 
	C455.435669,121.749352 456.269287,124.911476 460.080872,126.960686 
	C463.489502,128.793259 466.187134,127.499283 468.377136,124.806572 
	C471.467072,121.007370 468.342865,118.844322 465.524078,116.004997 
M323.850586,110.398468 
	C323.073395,111.483200 322.296173,112.567932 321.518982,113.652672 
	C326.419830,113.595734 329.160187,111.305153 328.857819,107.087006 
	C328.213654,98.100128 321.302155,104.408714 316.905670,102.966003 
	C317.851868,101.650223 318.592255,100.847244 319.057709,99.908012 
	C319.500122,99.015129 319.655060,97.979805 319.936401,97.007118 
	C318.881104,96.991974 317.551239,96.557068 316.819122,97.035980 
	C313.987213,98.888474 312.066742,101.484810 313.444855,105.033424 
	C314.760315,108.420715 317.695557,108.254112 320.625977,107.532974 
	C321.266907,107.375244 321.851471,106.959930 322.494568,106.844223 
	C325.828552,106.244308 326.268768,107.421631 323.850586,110.398468 
M209.077118,74.225327 
	C209.685104,75.022736 210.293091,75.820145 210.901093,76.617554 
	C212.573822,74.210968 215.260056,71.964005 215.670425,69.358582 
	C216.220337,65.867104 213.070633,64.833900 209.852097,65.129639 
	C208.206787,65.280815 206.567078,65.492920 204.526398,65.722275 
	C205.439087,63.170765 206.036591,61.500404 206.917419,59.037975 
	C202.264816,60.320736 199.725266,62.452412 200.298447,66.254906 
	C200.944260,70.539360 204.580017,70.096794 207.818832,69.780769 
	C209.268250,69.639351 210.725800,69.581245 213.692261,69.385544 
	C211.521194,71.663231 210.519623,72.713989 209.077118,74.225327 
M468.574432,116.060471 
	C473.365173,119.041992 478.155823,117.499931 478.900391,112.721657 
	C479.495667,108.901749 477.796814,105.603226 474.442169,104.822365 
	C472.136353,104.285652 468.616760,105.635559 466.740021,107.348068 
	C463.778320,110.050621 465.648163,113.089211 468.574432,116.060471 
M217.150955,65.397316 
	C219.264221,66.767769 221.504944,67.677681 222.966583,64.852707 
	C223.186752,64.427193 220.959579,62.774410 219.913986,61.643574 
	C218.941071,60.591339 217.623703,59.624382 217.174561,58.364437 
	C215.779877,54.452019 213.087906,54.338402 209.883835,55.023682 
	C208.288269,61.207649 213.877869,62.059910 217.150955,65.397316 
M336.281555,100.437325 
	C334.341003,99.092064 331.209717,98.099823 330.686340,96.334427 
	C329.200775,91.323288 326.035980,92.394417 322.659821,92.711334 
	C322.853516,96.525482 329.733856,103.988739 332.889435,103.667099 
	C334.151978,103.538399 335.264526,101.938179 336.281555,100.437325 
z"/>
<path fill="#090A09" opacity="1.000000" stroke="none" 
	d="
M1.000000,114.000000 
	C1.000000,76.408379 1.000000,38.816757 1.000000,1.000000 
	C36.353909,1.000000 71.708298,1.000000 107.559082,1.373345 
	C110.492966,7.085528 112.930458,12.424367 115.367950,17.763205 
	C115.904480,17.656981 116.441010,17.550756 116.977539,17.444534 
	C118.135658,13.553800 116.156250,6.814022 124.319534,9.002630 
	C125.066139,9.017284 125.492882,9.023185 126.208344,9.222219 
	C134.661118,11.844975 137.746704,17.422182 136.729919,25.676043 
	C136.323364,28.976393 136.078979,32.310009 135.996948,35.634304 
	C135.822449,42.706501 137.310501,50.345295 128.160629,53.787361 
	C129.488297,55.198277 130.054947,56.038345 130.829208,56.583622 
	C135.037567,59.547348 136.367386,63.486813 136.107193,68.616409 
	C135.779236,75.081917 135.992203,81.610535 136.479996,88.073563 
	C137.250443,98.281631 136.585037,99.728577 127.570679,104.862999 
	C126.331795,105.568642 124.614601,107.690071 124.912949,108.378265 
	C125.572212,109.899033 127.291740,111.856407 128.725342,111.983604 
	C133.799759,112.433838 139.094513,112.968643 144.000031,111.969894 
	C148.178955,111.119072 151.963760,109.773926 156.084549,112.132286 
	C156.188797,112.260406 156.497437,112.374420 156.497437,112.374420 
	C156.497437,112.374420 156.807510,112.264572 157.133621,112.491043 
	C157.969513,112.859886 158.479294,113.002243 159.149719,113.423019 
	C160.891434,115.469780 162.472519,117.238121 163.674149,118.978394 
	C159.753616,117.586800 156.213165,116.221642 152.671249,114.860321 
	C150.044662,113.850815 146.983627,114.560715 147.790176,117.330780 
	C149.282990,122.457733 152.229965,127.161278 154.571274,132.041183 
	C155.103653,131.834396 155.636032,131.627609 156.168427,131.420822 
	C156.351471,130.539688 156.755707,129.638931 156.679611,128.780792 
	C156.334930,124.894165 158.180420,123.058899 161.893799,123.540352 
	C166.303116,124.112038 165.572632,121.601120 165.382996,118.995811 
	C168.181564,117.794632 170.939667,116.997299 172.888657,115.281082 
	C175.019821,113.404427 175.582703,110.875931 171.667023,109.562225 
	C171.758423,108.829987 171.838211,108.415047 172.311264,108.069962 
	C176.084824,108.104256 179.465134,108.068695 183.044724,108.321609 
	C191.435883,124.971504 204.611069,137.356339 217.898727,150.658127 
	C203.331436,152.973343 189.868729,155.008682 176.443665,157.267868 
	C146.264725,162.346405 115.879562,163.552399 85.404922,161.611511 
	C74.859489,160.939896 64.381737,158.887512 53.936161,157.097580 
	C48.528652,156.170975 43.960377,153.361282 41.107220,148.419952 
	C38.312416,143.579681 39.611198,139.888184 44.370708,137.368378 
	C46.144382,136.429337 47.414360,134.538895 48.914017,133.082291 
	C46.978268,131.329681 45.080910,128.154617 43.099308,128.101120 
	C37.926552,127.961525 32.713844,129.166351 27.524271,129.886902 
	C26.312960,130.055084 25.054176,130.842194 23.947287,130.638351 
	C18.643250,129.661560 13.383887,128.442184 8.253053,126.979401 
	C9.453871,123.818909 10.510286,120.988014 11.654869,117.920853 
	C17.953724,117.830757 20.028410,116.359360 19.947475,111.212769 
	C18.010092,112.080116 16.215973,112.883324 14.689768,113.566589 
	C15.367402,111.031403 16.325075,108.649292 16.408581,106.236923 
	C16.427885,105.679184 12.439732,104.101669 12.031511,104.555351 
	C9.652343,107.199440 7.790404,110.308945 5.753740,113.261223 
	C6.128288,113.507484 6.502837,113.753738 6.877385,114.000000 
	C4.918257,114.000000 2.959128,114.000000 1.000000,114.000000 
M51.405392,67.894218 
	C47.683056,64.987038 47.122288,68.546715 46.274120,70.642670 
	C45.633690,72.225273 45.761662,74.118835 45.527012,76.043167 
	C44.309017,76.043167 43.492565,76.043076 42.676113,76.043182 
	C38.447685,76.043709 36.150848,78.151466 36.044277,82.379532 
	C35.951782,86.049232 37.739803,88.468513 41.463303,88.887581 
	C45.764648,89.371681 48.668411,87.531639 48.928074,82.975441 
	C49.101402,79.934113 50.596279,79.143852 53.332390,78.884895 
	C56.148525,78.618378 58.675400,77.556519 58.076851,74.325104 
	C55.291538,74.079895 53.026619,73.880501 50.761700,73.681107 
	C50.962528,71.968376 51.163357,70.255653 51.405392,67.894218 
M61.014435,59.683384 
	C60.681961,58.714928 60.349487,57.746468 59.624832,55.635635 
	C58.446915,58.647823 57.723236,60.498428 56.812000,62.828655 
	C55.182693,61.436092 54.063988,60.153008 52.661724,59.393333 
	C51.683865,58.863575 50.317364,59.051201 49.124466,58.918377 
	C49.379105,60.066013 49.277229,61.522156 49.954128,62.304401 
	C52.128208,64.816818 54.511627,67.166481 56.973019,69.404335 
	C58.257595,70.572250 59.874809,71.374298 61.341785,72.341599 
	C61.845863,70.653656 62.349937,68.965714 62.752674,67.617126 
	C64.916039,66.916718 66.934212,66.263313 68.899605,65.627007 
	C65.945770,63.654701 63.519089,62.034386 61.014435,59.683384 
M29.124321,99.902199 
	C28.174896,100.815849 27.102869,101.638283 26.327053,102.681091 
	C25.930895,103.213577 25.835852,104.215942 26.045803,104.862755 
	C26.175058,105.260994 27.539555,105.733414 27.664566,105.587151 
	C29.789160,103.101440 33.185089,100.682808 33.502651,97.926971 
	C33.911209,94.381454 30.418409,92.861145 26.706390,93.646164 
	C25.159697,93.973259 23.630199,94.381660 21.275658,94.950554 
	C22.645575,92.120857 23.593124,90.163597 24.856457,87.554070 
	C19.652296,88.907677 16.397196,92.703911 17.373386,95.689644 
	C18.730482,99.840408 22.056625,98.959679 25.279200,98.511932 
	C26.530334,98.338097 27.897335,98.998207 29.124321,99.902199 
M29.605225,90.861244 
	C31.505751,92.141907 33.262600,93.850784 35.357037,94.553513 
	C36.766216,95.026329 38.652718,94.076530 40.325676,93.763176 
	C39.564728,92.699341 38.893116,91.554611 38.020992,90.591454 
	C36.840340,89.287560 34.990078,88.346680 34.342243,86.853119 
	C32.889233,83.503265 30.441431,83.212364 27.446529,83.693039 
	C27.936291,85.995583 28.426050,88.298119 29.605225,90.861244 
z"/>
<path fill="#090B09" opacity="1.000000" stroke="none" 
	d="
M207.000000,221.000000 
	C161.312439,221.000000 115.624878,221.000000 69.552521,220.657410 
	C70.865593,217.041016 72.563469,213.767212 73.988312,211.019867 
	C76.247185,210.045013 78.438133,209.099472 80.629082,208.153931 
	C80.559143,207.671616 80.489204,207.189316 80.419273,206.707016 
	C76.001373,205.857635 72.740349,203.969742 73.286232,198.682007 
	C70.871590,198.682007 68.818588,198.682007 65.198357,198.682007 
	C67.331528,202.217499 68.940392,204.883987 70.583229,207.606796 
	C67.374001,208.303497 64.221970,208.987793 59.590981,209.993149 
	C61.753838,207.134613 63.030289,205.447601 64.306740,203.760574 
	C64.007561,203.288544 63.708385,202.816528 63.409206,202.344498 
	C61.840473,203.167618 59.812805,203.633179 58.821133,204.905914 
	C57.626911,206.438644 56.242790,209.078079 56.804173,210.505753 
	C59.170998,216.525070 64.462296,212.381607 68.592461,212.894028 
	C67.289421,215.834167 66.144707,218.417084 65.000000,221.000000 
	C43.729488,221.000000 22.458977,221.000000 1.000000,221.000000 
	C1.000000,192.979385 1.000000,164.958359 1.354866,136.499649 
	C4.246787,137.871231 6.992198,139.452591 9.275067,141.539841 
	C13.319843,145.238022 16.973988,149.361206 20.985594,153.098297 
	C32.744801,164.052826 46.246601,171.396667 62.601383,172.524673 
	C70.721817,173.084732 78.850853,173.520050 87.064926,174.341309 
	C88.438560,176.783325 89.723267,178.895813 90.637550,181.033478 
	C87.959999,183.570358 85.652863,186.082092 83.345734,188.593811 
	C83.765427,189.016357 84.185120,189.438889 84.604813,189.861435 
	C79.720131,190.209198 75.354057,191.423691 75.130142,197.202744 
	C74.981697,201.033829 77.173470,203.535141 81.077385,203.857880 
	C88.279770,204.453323 87.621132,198.477554 88.570602,194.121902 
	C93.034790,193.735352 97.527588,193.829315 98.310806,187.945175 
	C100.064026,186.308136 101.453827,184.697632 103.662315,182.138443 
	C103.984398,182.029846 105.690582,181.454605 107.396774,180.879379 
	C107.395424,180.410721 107.394066,179.942062 107.392715,179.473404 
	C105.989273,178.978821 104.358391,178.777832 103.241867,177.912888 
	C101.943161,176.906830 101.095009,175.319183 100.490891,173.858398 
	C127.089027,173.269867 153.086502,171.019745 178.775131,165.999924 
	C193.283325,163.164871 207.651321,159.616409 222.140045,156.672653 
	C224.083786,156.277725 226.736252,156.998642 228.429947,158.139206 
	C237.807709,164.454346 246.820404,171.318298 256.271179,177.517029 
	C285.596710,196.751495 317.025146,211.095947 351.765686,217.745422 
	C351.820007,217.860336 351.982727,218.055618 352.124634,218.335556 
	C352.510986,219.410339 352.755493,220.205170 353.000000,221.000000 
	C308.645782,221.000000 264.291534,221.000000 219.546967,220.685486 
	C219.786118,219.152115 220.415619,217.933289 221.432541,215.964310 
	C215.315353,216.851532 212.327850,214.390259 212.559921,208.162857 
	C212.071152,208.351791 211.582367,208.540726 211.093582,208.729660 
	C210.510727,210.727493 209.927887,212.725327 209.203186,215.209366 
	C207.894943,214.096603 206.935043,212.933243 205.701553,212.322189 
	C204.285126,211.620514 202.626343,211.408096 201.072830,210.983154 
	C201.591370,212.364944 201.906570,213.874039 202.674103,215.099945 
	C203.964752,217.161362 205.542831,219.042831 207.000000,221.000000 
z"/>
<path fill="#F7A302" opacity="1.000000" stroke="none" 
	d="
M351.711334,217.630524 
	C317.025146,211.095947 285.596710,196.751495 256.271179,177.517029 
	C246.820404,171.318298 237.807709,164.454346 228.429947,158.139206 
	C226.736252,156.998642 224.083786,156.277725 222.140045,156.672653 
	C207.651321,159.616409 193.283325,163.164871 178.775131,165.999924 
	C153.086502,171.019745 127.089027,173.269867 100.028572,173.771179 
	C95.076454,173.876938 91.026222,173.944351 86.975998,174.011780 
	C78.850853,173.520050 70.721817,173.084732 62.601383,172.524673 
	C46.246601,171.396667 32.744801,164.052826 20.985594,153.098297 
	C16.973988,149.361206 13.319843,145.238022 9.275067,141.539841 
	C6.992198,139.452591 4.246787,137.871231 1.354866,136.030991 
	C1.000000,134.611115 1.000000,133.222214 1.325381,131.319916 
	C3.803392,129.640686 5.956023,128.474854 8.108652,127.309006 
	C13.383887,128.442184 18.643250,129.661560 23.947287,130.638351 
	C25.054176,130.842194 26.312960,130.055084 27.524271,129.886902 
	C32.713844,129.166351 37.926552,127.961525 43.099308,128.101120 
	C45.080910,128.154617 46.978268,131.329681 48.914017,133.082291 
	C47.414360,134.538895 46.144382,136.429337 44.370708,137.368378 
	C39.611198,139.888184 38.312416,143.579681 41.107220,148.419952 
	C43.960377,153.361282 48.528652,156.170975 53.936161,157.097580 
	C64.381737,158.887512 74.859489,160.939896 85.404922,161.611511 
	C115.879562,163.552399 146.264725,162.346405 176.443665,157.267868 
	C189.868729,155.008682 203.331436,152.973343 217.898727,150.658127 
	C204.611069,137.356339 191.435883,124.971504 183.017502,108.007202 
	C182.512207,106.621414 182.233444,105.838493 182.153870,104.740326 
	C183.567307,100.865112 183.040619,98.119759 178.938232,97.045258 
	C178.968781,97.028687 178.955078,97.096832 178.881577,96.892990 
	C178.679306,96.425568 178.503891,96.197922 178.121475,95.718185 
	C177.863831,95.002831 177.766556,94.575508 178.048157,94.144333 
	C180.215027,95.190804 182.195389,96.014565 183.752533,97.336769 
	C187.444489,100.471664 190.572449,100.375870 191.546158,95.937096 
	C192.765289,90.379639 195.988861,88.600777 200.841782,88.040115 
	C211.958176,110.582291 227.902588,128.861710 249.108307,142.427017 
	C250.612091,143.388992 252.747192,143.930130 254.518723,143.788895 
	C258.133575,143.500687 261.700714,142.613678 266.007568,142.017212 
	C267.473938,141.835388 268.220215,141.609711 268.966492,141.384033 
	C270.301758,141.105042 271.637054,140.826050 273.526306,140.870880 
	C274.040344,142.776169 274.000427,144.357635 273.598999,146.104218 
	C268.875793,147.042892 264.514130,147.816437 259.492889,148.706970 
	C260.838135,149.992249 261.410645,150.539261 261.902710,151.407501 
	C260.243011,155.687683 263.983643,165.163803 269.035156,169.386276 
	C269.408661,167.320801 269.121277,164.571396 270.203186,163.835724 
	C272.415649,162.331299 275.363983,161.909164 278.257507,161.045471 
	C278.505737,161.049637 279.001404,161.020172 279.228973,161.279144 
	C293.312469,169.038116 306.937927,177.010452 321.084808,183.914276 
	C337.446503,191.898987 355.208466,195.708588 372.901245,199.492950 
	C372.436859,200.563904 372.102020,201.324356 371.686981,202.038177 
	C369.977509,204.978210 369.881287,208.161850 372.577972,210.126862 
	C374.623962,211.617752 378.064453,212.966476 380.076569,212.215088 
	C381.945831,211.517059 382.802246,207.983932 383.985901,205.639099 
	C384.402222,204.814331 384.466492,203.811859 384.427002,203.973618 
	C387.516479,202.569763 389.762512,201.549164 392.331665,200.468094 
	C393.079193,200.314697 393.503632,200.221771 393.988251,200.266876 
	C394.048462,200.404877 394.091827,200.702881 394.437531,200.767273 
	C397.103424,200.813004 399.423615,200.794342 402.168274,200.626236 
	C403.782623,200.538086 404.972565,200.599380 406.387329,200.726028 
	C407.371002,200.711899 408.129883,200.632416 409.324493,200.419266 
	C417.648712,199.124435 425.645813,198.442276 433.398865,196.684006 
	C443.676422,194.353195 453.502380,190.630234 461.190735,182.899872 
	C468.192474,175.859894 469.007233,166.476807 463.175110,158.448685 
	C456.079376,148.681198 445.775574,143.560532 434.655518,140.278687 
	C406.011902,131.825043 376.726227,132.956573 347.485321,135.705322 
	C330.613770,137.291321 313.835419,139.868149 296.810669,141.685547 
	C296.397400,139.882767 296.188599,138.393463 296.046875,136.753357 
	C296.114014,136.602585 296.135590,136.273193 296.359436,136.295258 
	C296.583252,136.317337 296.957642,136.067993 297.370087,136.099701 
	C300.195435,135.732925 302.608368,135.334442 305.021271,134.935944 
	C317.236816,133.622437 329.447876,132.265182 341.668915,131.004807 
	C365.032654,128.595261 388.487976,127.340286 411.868011,129.704834 
	C423.493896,130.880646 434.891205,134.316071 447.035767,136.979919 
	C449.416809,137.969467 451.154022,138.708389 452.891266,139.447311 
	C460.987061,143.584702 469.160828,147.712189 474.790436,155.163986 
	C477.329620,158.525085 479.117798,162.453568 481.623352,166.062317 
	C482.000000,172.354401 482.000000,178.708786 481.670258,185.626633 
	C475.824249,195.479050 467.916748,202.158539 458.218506,206.618408 
	C445.493225,212.470276 432.068054,216.037476 418.209778,218.040939 
	C412.124451,218.920700 406.069000,220.007309 400.000000,221.000000 
	C397.958344,221.000000 395.916656,221.000000 393.332336,220.790939 
	C392.526428,220.721252 392.263214,220.860611 392.000000,221.000000 
	C390.933319,221.000000 389.866669,221.000000 388.187286,220.717743 
	C386.049713,220.623657 384.524872,220.811844 383.000000,221.000000 
	C382.250000,221.000000 381.500000,221.000000 380.353912,220.747711 
	C379.638550,220.663605 379.319275,220.831802 379.000000,221.000000 
	C377.611115,221.000000 376.222198,221.000000 374.417969,220.664780 
	C374.005127,219.882919 374.007629,219.436295 374.238525,218.741028 
	C374.312225,217.046204 374.641785,215.245819 373.898743,214.229935 
	C372.493927,212.309250 370.587219,210.688904 368.670532,209.231094 
	C367.206726,208.117767 365.464905,207.273666 363.720459,206.682343 
	C363.172546,206.496597 361.497467,207.681671 361.561035,207.963165 
	C361.975281,209.797455 362.479248,211.704910 363.440002,213.294586 
	C364.304840,214.725479 365.791351,215.780609 366.620636,217.005737 
	C364.162018,217.580307 362.086395,218.150604 359.669861,218.765808 
	C358.222412,218.568192 357.115875,218.325653 356.107483,217.767487 
	C357.314667,215.800629 358.423676,214.149384 360.020691,211.771530 
	C354.317657,210.958649 353.398010,214.807297 351.711334,217.630524 
z"/>
<path fill="#F2A004" opacity="1.000000" stroke="none" 
	d="
M155.980301,112.004166 
	C151.963760,109.773926 148.178955,111.119072 144.000031,111.969894 
	C139.094513,112.968643 133.799759,112.433838 128.725342,111.983604 
	C127.291740,111.856407 125.572212,109.899033 124.912949,108.378265 
	C124.614601,107.690071 126.331795,105.568642 127.570679,104.862999 
	C136.585037,99.728577 137.250443,98.281631 136.479996,88.073563 
	C135.992203,81.610535 135.779236,75.081917 136.107193,68.616409 
	C136.367386,63.486813 135.037567,59.547348 130.829208,56.583622 
	C130.054947,56.038345 129.488297,55.198277 128.160629,53.787361 
	C137.310501,50.345295 135.822449,42.706501 135.996948,35.634304 
	C136.078979,32.310009 136.323364,28.976393 136.729919,25.676043 
	C137.746704,17.422182 134.661118,11.844975 126.167145,8.892801 
	C124.248482,3.595116 129.005188,3.264894 131.000000,1.000000 
	C134.030594,1.000000 137.061188,1.000000 140.662079,1.353027 
	C147.632431,5.302754 153.882004,4.900339 160.000000,1.000000 
	C161.714355,1.000000 163.428711,1.000000 165.693146,1.384244 
	C169.782028,3.437689 170.449844,9.675011 167.445084,12.240665 
	C166.124176,13.368535 164.017731,14.721137 163.978622,16.023060 
	C163.685150,25.797289 163.818771,35.584343 163.818771,46.249859 
	C171.523148,35.960133 178.828262,26.263885 186.013580,16.479691 
	C186.524658,15.783768 186.327820,14.414740 186.166962,13.405421 
	C185.506393,9.260443 184.732315,5.133548 184.000000,1.000001 
	C185.388885,1.000000 186.777786,1.000000 188.704620,1.375733 
	C191.304886,2.131012 193.666763,1.996982 195.370819,2.990826 
	C199.688431,5.508978 202.778625,3.319519 206.000000,1.000000 
	C209.692902,1.000000 213.385818,1.000000 217.539368,1.000003 
	C219.171310,1.811266 220.423889,2.528135 221.497757,3.452609 
	C224.070801,5.667687 223.800049,9.760229 220.684860,10.769072 
	C210.096207,14.198186 204.122910,22.557301 198.206467,31.042797 
	C194.603394,36.210400 191.090652,41.440987 187.236069,47.084339 
	C189.888535,48.557076 192.714600,50.126205 195.506180,51.676193 
	C195.528580,52.078812 195.691559,52.529358 195.542694,52.688927 
	C188.658005,60.067532 194.088593,67.037514 195.916306,74.590538 
	C193.266632,78.188057 190.928864,81.307762 188.170227,84.989120 
	C184.622742,84.235100 179.950195,89.561722 174.587952,85.748215 
	C172.455566,79.207100 170.551178,72.955215 168.605713,66.568504 
	C164.078262,68.410698 162.749847,70.740936 163.069672,74.731873 
	C163.397629,78.824783 162.461639,83.002251 162.451859,87.143593 
	C162.441772,91.407089 162.881805,95.671654 162.822693,100.093620 
	C161.813217,101.097343 160.593384,101.885567 160.490646,102.799385 
	C160.117325,106.119873 160.118027,109.482430 159.727615,112.898880 
	C159.314743,113.027298 159.151917,113.085953 158.989075,113.144608 
	C158.479294,113.002243 157.969513,112.859886 157.002548,112.429489 
	C156.363480,112.069054 156.175125,112.023293 155.980301,112.004166 
M152.702972,19.299873 
	C154.092896,19.299873 155.482819,19.299873 158.467300,19.299873 
	C156.444321,16.574701 155.354797,15.107004 153.688965,13.215055 
	C151.804657,13.428633 149.920364,13.642210 147.797119,13.282983 
	C146.878616,12.827879 145.960098,12.372774 144.704880,11.413048 
	C144.153412,11.942934 143.601929,12.472820 143.063751,13.550037 
	C143.136078,13.717599 143.208389,13.885159 142.895401,14.573714 
	C142.727295,15.375742 142.559189,16.177769 142.265518,17.494551 
	C142.273682,17.670979 142.281830,17.847404 142.135498,18.728529 
	C142.135498,20.753717 142.135498,22.778908 142.135498,24.724970 
	C143.414978,25.563953 144.594009,26.337080 145.536865,27.783634 
	C144.950333,29.289738 144.363815,30.795839 143.400620,33.269138 
	C147.489288,32.022167 150.923325,31.944487 152.410355,30.203653 
	C153.528564,28.894613 152.147980,25.451056 152.016479,22.179300 
	C152.032516,21.128429 152.048553,20.077560 152.702972,19.299873 
M198.753113,11.160729 
	C197.365372,11.718111 195.746521,13.035610 194.631317,12.696554 
	C190.579742,11.464738 191.661758,15.040763 192.055069,15.891373 
	C193.273788,18.527067 195.182526,20.843702 196.792328,23.237926 
	C200.082291,19.858917 202.888016,16.977251 205.605026,14.186694 
	C202.897110,12.848781 201.228409,12.024320 198.753113,11.160729 
z"/>
<path fill="#F4A103" opacity="1.000000" stroke="none" 
	d="
M240.130753,20.411818 
	C239.673477,16.577206 239.264618,12.986190 234.372681,11.772441 
	C232.433578,11.291327 230.952728,8.963229 229.263245,7.476065 
	C230.877686,5.939068 232.483765,4.393157 234.111191,2.870029 
	C234.660629,2.355803 235.264084,1.899324 235.421432,1.208229 
	C235.750000,1.000000 236.500000,1.000000 237.466553,1.459865 
	C239.122070,1.613155 240.561035,1.306579 242.000000,1.000001 
	C242.444443,1.000000 242.888901,1.000000 243.666672,1.000003 
	C244.439621,1.655450 244.733398,2.644474 245.343063,2.911036 
	C248.745834,4.398794 252.225052,5.711714 256.307526,7.334600 
	C266.370880,1.950074 277.912292,1.445009 289.603729,5.019935 
	C304.341614,9.526381 312.711731,21.779747 311.758728,36.692337 
	C310.873657,50.541550 301.073547,61.215359 286.118408,63.828770 
	C279.961426,64.904701 273.603821,64.832703 266.568054,65.338112 
	C266.160065,74.303665 265.537292,83.692024 265.392426,93.087753 
	C265.325531,97.423782 267.751526,100.483406 272.033600,102.084938 
	C274.603821,103.046211 278.252289,104.338280 276.696747,107.807266 
	C275.809845,109.785072 272.438141,111.738266 270.157349,111.771339 
	C265.611328,111.837265 261.058167,110.474464 256.483185,109.898766 
	C254.412766,109.638237 252.258179,109.639404 250.185303,109.886681 
	C245.282104,110.471603 240.403015,111.766586 235.518250,111.747192 
	C233.573639,111.739479 231.639786,109.019081 229.701019,107.533630 
	C231.133148,105.787514 232.230637,103.157913 234.061478,102.464478 
	C239.116440,100.549896 240.740463,97.359818 240.524567,92.134727 
	C240.250458,85.500748 240.354553,78.798836 240.995148,72.194069 
	C241.635345,65.593643 240.295029,60.362904 233.692535,56.630791 
	C234.434067,54.499084 235.609756,52.894924 236.681900,51.224308 
	C238.222870,48.823154 239.688416,46.373608 241.556244,43.951263 
	C242.666519,43.951508 243.406738,43.945210 244.406036,44.021866 
	C245.114639,44.407009 245.564148,44.709198 245.772629,45.092594 
	C245.928589,45.892010 246.325577,46.610222 246.722565,47.328434 
	C247.101151,47.041729 247.479736,46.755024 247.858322,46.468319 
	C247.231277,45.975044 246.604218,45.481766 246.215820,44.781006 
	C247.333069,44.037556 248.211670,43.501595 249.329071,43.181793 
	C250.291595,44.025578 251.015305,44.653194 251.725159,45.642845 
	C251.546478,46.703114 251.381622,47.401352 251.066101,48.187462 
	C250.934647,49.144573 250.953888,50.013809 250.695557,51.046677 
	C250.044891,51.686268 249.671783,52.162228 249.298676,52.638187 
	C249.467896,52.883934 249.637100,53.129681 249.806305,53.375423 
	C251.207169,52.592606 252.608017,51.809784 254.271744,50.957432 
	C254.713303,50.594063 254.891983,50.300232 255.344055,49.917526 
	C259.664246,47.420265 254.027496,46.700394 254.859116,44.563972 
	C255.732040,43.573254 256.498871,42.889698 257.514343,41.982845 
	C257.919617,40.885803 258.076172,40.012054 258.391907,39.043503 
	C258.578918,38.608028 258.606689,38.267361 258.480835,37.843040 
	C258.327148,37.759388 258.043335,37.964123 258.104370,37.722275 
	C258.165436,37.480427 257.995819,37.011276 258.075134,36.836441 
	C258.154419,36.661610 258.124847,36.278790 258.403381,36.067627 
	C257.515045,34.976856 256.348206,34.097240 255.396454,32.902523 
	C257.372711,31.965998 259.133911,31.344578 260.042725,31.023907 
	C258.810242,27.487808 257.495483,23.715673 256.129974,19.564671 
	C256.745575,15.990132 254.103760,14.649129 252.221146,14.890217 
	C250.514359,15.108784 248.784973,17.308214 247.605515,19.008781 
	C245.560272,21.957598 248.506149,22.707619 250.142502,24.238018 
	C249.258911,25.638990 248.460724,26.709024 247.316803,27.792755 
	C247.286011,28.898106 247.600952,29.989761 248.030243,31.330231 
	C248.409912,32.033672 248.675217,32.488304 248.572311,32.905270 
	C247.465851,32.909683 246.727585,32.951759 245.739258,32.993958 
	C245.322708,33.002785 245.156235,33.011482 244.724426,32.818008 
	C243.367050,31.074471 242.275009,29.533106 241.113525,27.570896 
	C240.739639,24.903976 240.435196,22.657896 240.130753,20.411818 
M300.487671,30.190624 
	C301.012543,29.472788 301.537415,28.754953 302.092285,27.335978 
	C301.913727,26.903599 301.735138,26.471220 302.283539,25.837229 
	C304.547394,24.914444 304.817291,23.685318 302.141541,22.036316 
	C300.794037,22.344709 299.446503,22.653103 297.820587,22.322500 
	C296.268219,20.447435 294.715851,18.572371 292.325531,15.685151 
	C291.944427,21.721582 291.668945,26.084934 291.392944,30.456959 
	C292.874817,30.943790 294.373199,31.436031 296.227997,32.309387 
	C296.468811,32.767612 296.709595,33.225834 296.421936,34.109467 
	C296.502197,34.605907 296.582458,35.102352 296.662720,35.598793 
	C297.462830,34.883381 298.262970,34.167965 299.265442,32.912083 
	C299.159637,32.352268 299.053833,31.792456 299.485779,31.078489 
	C299.624146,30.755388 299.762543,30.432289 300.487671,30.190624 
M272.968872,15.223702 
	C270.650665,17.075558 266.474457,18.793442 266.329651,20.802015 
	C265.629791,30.507906 266.014252,40.291985 266.014252,50.358418 
	C268.501495,50.512756 270.466217,50.717873 272.433228,50.742332 
	C280.963745,50.848404 283.999542,48.590248 285.041077,40.069107 
	C285.657959,35.021969 285.578583,29.762451 284.913239,24.716984 
	C284.012299,17.884628 280.847015,15.558110 272.968872,15.223702 
M294.630951,49.065735 
	C294.232056,50.285500 293.833130,51.505268 293.434235,52.725033 
	C293.946381,52.812332 294.458496,52.899628 294.970642,52.986927 
	C295.062805,51.703674 295.154938,50.420425 294.630951,49.065735 
M294.911316,43.580116 
	C295.055389,43.185123 295.199463,42.790127 295.343567,42.395138 
	C295.059692,42.307041 294.775787,42.218948 294.491882,42.130856 
	C294.435730,42.668442 294.379578,43.206028 294.911316,43.580116 
z"/>
<path fill="#0B0C0A" opacity="1.000000" stroke="none" 
	d="
M400.468658,221.000000 
	C406.069000,220.007309 412.124451,218.920700 418.209778,218.040939 
	C432.068054,216.037476 445.493225,212.470276 458.218506,206.618408 
	C467.916748,202.158539 475.824249,195.479050 481.670258,186.095032 
	C482.000000,197.622879 482.000000,209.245743 482.000000,221.000000 
	C454.979248,221.000000 427.958282,221.000000 400.468658,221.000000 
z"/>
<path fill="#0D0D0A" opacity="1.000000" stroke="none" 
	d="
M183.532043,1.000001 
	C184.732315,5.133548 185.506393,9.260443 186.166962,13.405421 
	C186.327820,14.414740 186.524658,15.783768 186.013580,16.479691 
	C178.828262,26.263885 171.523148,35.960133 163.818771,46.249859 
	C163.818771,35.584343 163.685150,25.797289 163.978622,16.023060 
	C164.017731,14.721137 166.124176,13.368535 167.445084,12.240665 
	C170.449844,9.675011 169.782028,3.437689 166.121613,1.384244 
	C171.688034,1.000000 177.376083,1.000000 183.532043,1.000001 
z"/>
<path fill="#161717" opacity="1.000000" stroke="none" 
	d="
M65.399994,221.000000 
	C66.144707,218.417084 67.289421,215.834167 68.592461,212.894028 
	C64.462296,212.381607 59.170998,216.525070 56.804173,210.505753 
	C56.242790,209.078079 57.626911,206.438644 58.821133,204.905914 
	C59.812805,203.633179 61.840473,203.167618 63.409206,202.344498 
	C63.708385,202.816528 64.007561,203.288544 64.306740,203.760574 
	C63.030289,205.447601 61.753838,207.134613 59.590981,209.993149 
	C64.221970,208.987793 67.374001,208.303497 70.583229,207.606796 
	C68.940392,204.883987 67.331528,202.217499 65.198357,198.682007 
	C68.818588,198.682007 70.871590,198.682007 73.286232,198.682007 
	C72.740349,203.969742 76.001373,205.857635 80.419273,206.707016 
	C80.489204,207.189316 80.559143,207.671616 80.629082,208.153931 
	C78.438133,209.099472 76.247185,210.045013 73.988312,211.019867 
	C72.563469,213.767212 70.865593,217.041016 69.083862,220.657410 
	C67.933327,221.000000 66.866661,221.000000 65.399994,221.000000 
z"/>
<path fill="#181816" opacity="1.000000" stroke="none" 
	d="
M8.253054,126.979401 
	C5.956023,128.474854 3.803392,129.640686 1.325381,130.903259 
	C1.000000,127.969406 1.000000,124.938812 1.274966,121.628052 
	C2.956210,121.948296 4.362489,122.548698 5.768765,123.149109 
	C6.038299,122.432098 6.736770,121.319107 6.503425,121.066338 
	C5.470398,119.947304 4.224537,118.990532 2.937318,118.158112 
	C2.457937,117.848106 1.655257,118.038040 1.000000,118.000000 
	C1.000000,116.933327 1.000000,115.866661 1.000000,114.399994 
	C2.959128,114.000000 4.918257,114.000000 6.877385,114.000000 
	C6.502837,113.753738 6.128288,113.507484 5.753740,113.261223 
	C7.790404,110.308945 9.652343,107.199440 12.031511,104.555351 
	C12.439732,104.101669 16.427885,105.679184 16.408581,106.236923 
	C16.325075,108.649292 15.367402,111.031403 14.689768,113.566589 
	C16.215973,112.883324 18.010092,112.080116 19.947475,111.212769 
	C20.028410,116.359360 17.953724,117.830757 11.654869,117.920853 
	C10.510286,120.988014 9.453871,123.818909 8.253054,126.979401 
z"/>
<path fill="#161717" opacity="1.000000" stroke="none" 
	d="
M123.999672,8.993876 
	C116.156250,6.814022 118.135658,13.553800 116.977539,17.444534 
	C116.441010,17.550756 115.904480,17.656981 115.367950,17.763205 
	C112.930458,12.424367 110.492966,7.085528 108.027740,1.373345 
	C111.030594,1.000000 114.061188,1.000000 117.677406,1.309264 
	C120.175247,4.076977 122.087456,6.535426 123.999672,8.993876 
z"/>
<path fill="#161717" opacity="1.000000" stroke="none" 
	d="
M207.428467,221.000000 
	C205.542831,219.042831 203.964752,217.161362 202.674103,215.099945 
	C201.906570,213.874039 201.591370,212.364944 201.072830,210.983154 
	C202.626343,211.408096 204.285126,211.620514 205.701553,212.322189 
	C206.935043,212.933243 207.894943,214.096603 209.203186,215.209366 
	C209.927887,212.725327 210.510727,210.727493 211.093582,208.729660 
	C211.582367,208.540726 212.071152,208.351791 212.559921,208.162857 
	C212.327850,214.390259 215.315353,216.851532 221.432541,215.964310 
	C220.415619,217.933289 219.786118,219.152115 219.078308,220.685486 
	C218.250000,221.000000 217.500000,221.000000 216.272064,220.727097 
	C214.862762,220.636124 213.931381,220.818069 213.000000,221.000000 
	C211.285645,221.000000 209.571289,221.000000 207.428467,221.000000 
z"/>
<path fill="#161717" opacity="1.000000" stroke="none" 
	d="
M427.541931,1.000000 
	C428.643616,3.521462 430.301270,6.324790 429.696869,8.499348 
	C428.753723,11.892415 425.577698,13.649324 421.777069,12.622197 
	C418.096954,11.627640 416.395599,9.000670 416.567108,5.209589 
	C416.619141,4.059284 416.845123,2.916847 416.995728,1.385403 
	C420.361298,1.000000 423.722565,1.000000 427.541931,1.000000 
M421.135712,3.915111 
	C421.672668,5.460781 422.130310,7.045917 422.853394,8.498978 
	C422.937683,8.668365 424.489014,8.107730 425.360229,7.885544 
	C424.619965,6.566741 423.934479,5.211420 423.097748,3.956953 
	C422.908173,3.672738 422.193481,3.738785 421.135712,3.915111 
z"/>
<path fill="#161616" opacity="1.000000" stroke="none" 
	d="
M482.000000,107.535355 
	C477.766785,104.171822 473.009552,100.786339 470.683563,96.104729 
	C474.641632,95.372932 477.978363,94.756020 481.657562,94.069550 
	C482.000000,98.356903 482.000000,102.713799 482.000000,107.535355 
z"/>
<path fill="#12120D" opacity="1.000000" stroke="none" 
	d="
M159.531723,1.000000 
	C153.882004,4.900339 147.632431,5.302754 141.116196,1.353027 
	C147.021149,1.000000 153.042297,1.000000 159.531723,1.000000 
z"/>
<path fill="#161616" opacity="1.000000" stroke="none" 
	d="
M124.319534,9.002630 
	C122.087456,6.535426 120.175247,4.076977 118.131516,1.309264 
	C122.024544,1.000000 126.049095,1.000000 130.536819,1.000000 
	C129.005188,3.264894 124.248482,3.595116 125.878418,8.699668 
	C125.492882,9.023185 125.066139,9.017284 124.319534,9.002630 
z"/>
<path fill="#262217" opacity="1.000000" stroke="none" 
	d="
M356.009338,218.083130 
	C357.115875,218.325653 358.222412,218.568192 360.069580,218.885437 
	C363.549438,219.149155 366.288605,219.338135 369.357391,219.621796 
	C370.140808,219.771805 370.594604,219.827133 371.044983,220.162216 
	C371.027679,220.627975 371.013824,220.813980 371.000000,221.000000 
	C365.311951,221.000000 359.623932,221.000000 353.467957,221.000000 
	C352.755493,220.205170 352.510986,219.410339 352.526123,218.291107 
	C353.860260,218.005539 354.934784,218.044342 356.009338,218.083130 
z"/>
<path fill="#12120D" opacity="1.000000" stroke="none" 
	d="
M205.532394,1.000000 
	C202.778625,3.319519 199.688431,5.508978 195.370819,2.990826 
	C193.666763,1.996982 191.304886,2.131012 189.121277,1.375733 
	C194.354935,1.000000 199.709854,1.000000 205.532394,1.000000 
z"/>
<path fill="#090B09" opacity="1.000000" stroke="none" 
	d="
M1.000000,118.375000 
	C1.655257,118.038040 2.457937,117.848106 2.937318,118.158112 
	C4.224537,118.990532 5.470398,119.947304 6.503425,121.066338 
	C6.736770,121.319107 6.038299,122.432098 5.768765,123.149109 
	C4.362489,122.548698 2.956210,121.948296 1.274966,121.173943 
	C1.000000,120.250000 1.000000,119.500000 1.000000,118.375000 
z"/>
<path fill="#090B09" opacity="1.000000" stroke="none" 
	d="
M213.375000,221.000000 
	C213.931381,220.818069 214.862762,220.636124 215.897064,220.727097 
	C215.250000,221.000000 214.500000,221.000000 213.375000,221.000000 
z"/>
<path fill="#ECA00D" opacity="1.000000" stroke="none" 
	d="
M371.375000,221.000000 
	C371.013824,220.813980 371.027679,220.627975 371.299622,219.976013 
	C372.375183,219.336594 373.192657,219.163116 374.010132,218.989655 
	C374.007629,219.436295 374.005127,219.882919 374.001312,220.664780 
	C373.250000,221.000000 372.500000,221.000000 371.375000,221.000000 
z"/>
<path fill="#8B610D" opacity="1.000000" stroke="none" 
	d="
M383.416656,221.000000 
	C384.524872,220.811844 386.049713,220.623657 387.787292,220.717743 
	C386.611115,221.000000 385.222198,221.000000 383.416656,221.000000 
z"/>
<path fill="#090B09" opacity="1.000000" stroke="none" 
	d="
M241.600006,1.000001 
	C240.561035,1.306579 239.122070,1.613155 237.841553,1.459865 
	C239.066666,1.000000 240.133347,1.000000 241.600006,1.000001 
z"/>
<path fill="#8B610D" opacity="1.000000" stroke="none" 
	d="
M392.250000,221.000000 
	C392.263214,220.860611 392.526428,220.721252 392.894836,220.790939 
	C393.000000,221.000000 392.500000,221.000000 392.250000,221.000000 
z"/>
<path fill="#8B610D" opacity="1.000000" stroke="none" 
	d="
M379.250000,221.000000 
	C379.319275,220.831802 379.638550,220.663605 379.978912,220.747711 
	C380.000000,221.000000 379.500000,221.000000 379.250000,221.000000 
z"/>
<path fill="#181816" opacity="1.000000" stroke="none" 
	d="
M241.186172,43.944721 
	C239.688416,46.373608 238.222870,48.823154 236.681900,51.224308 
	C235.609756,52.894924 234.434067,54.499084 233.411224,56.475540 
	C232.341949,57.404171 230.935181,57.750656 230.032852,58.620457 
	C227.151871,61.397564 223.879349,61.901333 221.196014,59.150448 
	C219.609940,57.524456 218.332962,54.389271 218.743301,52.289680 
	C219.467163,48.585934 222.341919,46.405670 226.606750,47.281582 
	C227.062958,47.375275 227.572006,47.211651 227.396194,47.227707 
	C229.040390,43.171780 230.556183,39.432590 232.071976,35.693401 
	C232.443161,35.838932 232.814331,35.984459 233.185516,36.129990 
	C232.630035,34.089149 232.074539,32.048306 231.519043,30.007465 
	C231.885040,29.770292 232.251038,29.533117 232.617035,29.295944 
	C234.681793,30.643101 236.746536,31.990259 240.037735,34.137630 
	C240.037735,29.201153 240.037735,25.312677 240.084244,20.918011 
	C240.435196,22.657896 240.739639,24.903976 241.043732,28.031868 
	C240.972092,33.283573 240.900818,37.653461 240.573914,41.832138 
	C238.990463,40.526680 237.662613,39.412434 235.149704,37.303741 
	C234.317551,40.409302 233.768478,42.458481 233.219391,44.507656 
	C235.431976,44.443043 237.644958,44.388493 239.856705,44.302490 
	C240.172668,44.290203 240.482681,44.125690 240.889740,43.994621 
	C240.984024,43.957619 241.186172,43.944721 241.186172,43.944721 
M223.608765,55.880116 
	C224.864197,55.737278 226.119629,55.594444 227.375061,55.451614 
	C227.131226,54.419312 227.195084,53.079334 226.557022,52.441231 
	C225.918961,51.803154 224.578964,51.866962 223.546677,51.623093 
	C223.404831,52.878860 223.262985,54.134624 223.608765,55.880116 
z"/>
<path fill="#161717" opacity="1.000000" stroke="none" 
	d="
M305.100830,134.553741 
	C302.608368,135.334442 300.195435,135.732925 297.219696,135.888733 
	C296.423981,135.388168 296.191071,135.130295 295.821350,134.734833 
	C295.499939,134.417984 295.302063,134.254883 295.090912,134.107941 
	C293.073578,131.913132 290.948212,129.804428 289.094482,127.479187 
	C288.397278,126.604645 288.330048,125.227882 287.975616,124.080086 
	C289.037323,123.991966 290.097778,123.881676 291.161011,123.819687 
	C295.117859,123.589027 299.075653,123.374237 301.405548,123.244270 
	C303.459595,119.385773 304.793304,116.288818 306.742950,113.646294 
	C307.212921,113.009308 310.660339,113.356293 311.105713,114.157906 
	C312.140411,116.020348 312.179260,118.436028 312.677155,120.901855 
	C313.143616,120.693382 314.333191,120.161728 315.552704,119.616707 
	C317.069489,124.401505 314.550446,126.450928 306.562317,127.020966 
	C306.110748,129.357666 305.645599,131.764603 305.100830,134.553741 
M301.231750,132.030869 
	C300.850189,130.503876 300.468658,128.976883 300.087097,127.449890 
	C299.245667,127.738068 298.404236,128.026245 297.562805,128.314423 
	C298.423553,129.585327 299.277893,130.860687 300.157440,132.118439 
	C300.226532,132.217239 300.471191,132.193253 301.231750,132.030869 
z"/>
<path fill="#F5A50E" opacity="1.000000" stroke="none" 
	d="
M174.815948,86.037453 
	C179.950195,89.561722 184.622742,84.235100 188.170227,84.989120 
	C190.928864,81.307762 193.266632,78.188057 195.960175,74.972076 
	C197.803391,79.012177 199.290833,83.148560 200.810028,87.662529 
	C195.988861,88.600777 192.765289,90.379639 191.546158,95.937096 
	C190.572449,100.375870 187.444489,100.471664 183.752533,97.336769 
	C182.195389,96.014565 180.215027,95.190804 177.882965,94.110687 
	C177.338882,94.080910 177.020950,93.968658 176.996002,93.596313 
	C176.252670,90.828461 175.534302,88.432953 174.815948,86.037453 
M184.379562,89.699348 
	C185.139008,91.301758 185.827164,92.948555 186.758438,94.443947 
	C186.861511,94.609459 188.353043,93.910309 189.200623,93.612175 
	C188.272919,92.249931 187.393326,90.849838 186.376495,89.557739 
	C186.176010,89.302956 185.446762,89.464249 184.379562,89.699348 
z"/>
<path fill="#161717" opacity="1.000000" stroke="none" 
	d="
M354.932373,81.965454 
	C353.727844,87.352959 349.874390,88.343185 345.155457,87.647400 
	C344.493835,95.517395 342.671448,98.068565 337.943939,97.935944 
	C334.622681,97.842773 331.295197,94.493050 331.203522,91.150452 
	C331.089752,87.000725 334.249908,84.760994 341.398895,84.067245 
	C342.495331,80.322075 341.239532,74.978790 347.634064,74.036636 
	C347.999451,73.998489 347.992371,73.989502 347.960388,74.353233 
	C348.238586,77.564110 342.725220,80.025871 346.836853,82.678665 
	C348.281647,83.610817 351.564911,81.693497 354.148865,81.239998 
	C354.485565,81.610748 354.700012,81.798332 354.932373,81.965454 
M335.748871,91.868553 
	C337.275726,92.241623 338.802551,92.614685 340.329407,92.987747 
	C339.841888,91.578957 339.354370,90.170166 338.866852,88.761398 
	C337.735687,89.585670 336.604523,90.409943 335.748871,91.868553 
z"/>
<path fill="#161616" opacity="1.000000" stroke="none" 
	d="
M422.069916,16.706081 
	C420.854797,17.226070 419.753906,17.737667 418.702972,17.650099 
	C415.114807,17.351114 413.610870,19.047415 413.296051,22.454466 
	C413.197571,23.520256 412.341553,24.516050 411.832306,25.543880 
	C411.013062,24.847778 409.883667,24.310856 409.430084,23.427078 
	C407.771301,20.195082 406.147095,16.916422 404.915161,13.508799 
	C404.437653,12.187988 404.558594,10.134826 405.319855,9.064778 
	C405.821655,8.359500 408.237579,8.276404 409.304718,8.842152 
	C413.707642,11.176428 417.922852,13.864827 422.069916,16.706081 
z"/>
<path fill="#181816" opacity="1.000000" stroke="none" 
	d="
M452.858826,139.081406 
	C451.154022,138.708389 449.416809,137.969467 447.459900,137.036377 
	C446.172424,133.905930 444.996460,131.002441 444.092255,128.016632 
	C443.750549,126.888176 443.558716,125.163216 444.166656,124.448166 
	C444.817657,123.682449 446.719879,123.219345 447.679932,123.606453 
	C452.367676,125.496666 456.923035,127.715088 462.192719,130.122330 
	C459.172241,134.012573 450.627106,130.901306 452.858826,139.081406 
z"/>
<path fill="#161616" opacity="1.000000" stroke="none" 
	d="
M355.290436,81.941925 
	C354.700012,81.798332 354.485565,81.610748 354.073181,80.900574 
	C351.902344,78.262131 349.947357,76.125816 347.992371,73.989502 
	C347.992371,73.989502 347.999451,73.998489 348.004822,74.002914 
	C347.019989,71.675377 346.029846,69.343414 345.039703,67.011444 
	C347.161255,68.224495 349.281830,69.439194 351.406464,70.646835 
	C351.546387,70.726372 351.716980,70.752037 352.259216,70.927963 
	C352.850800,69.239502 353.449646,67.530373 354.469574,64.619347 
	C357.210480,68.770752 358.114746,74.008255 364.556335,72.304626 
	C364.415863,72.943253 364.275391,73.581886 364.134918,74.220512 
	C362.291351,75.065361 360.447784,75.910210 358.604218,76.755051 
	C358.846558,76.912148 359.088928,77.069244 359.331268,77.226334 
	C358.103699,78.790352 356.876099,80.354370 355.290436,81.941925 
z"/>
<path fill="#161717" opacity="1.000000" stroke="none" 
	d="
M465.775452,116.256691 
	C468.342865,118.844322 471.467072,121.007370 468.377136,124.806572 
	C466.187134,127.499283 463.489502,128.793259 460.080872,126.960686 
	C456.269287,124.911476 455.435669,121.749352 456.400879,117.692551 
	C456.968750,115.305687 457.018860,112.795631 457.388489,109.589188 
	C461.150238,110.027306 462.759674,113.887161 465.775452,116.256691 
M459.572205,119.882904 
	C459.804840,120.662567 459.798767,121.758331 460.321869,122.153336 
	C461.285309,122.880890 462.528381,123.387085 463.721130,123.583618 
	C464.155426,123.655182 465.332794,122.280815 465.223328,122.078156 
	C464.633514,120.986404 463.919708,119.751785 462.903259,119.169373 
	C462.144409,118.734543 460.861786,119.213760 459.572205,119.882904 
z"/>
<path fill="#161717" opacity="1.000000" stroke="none" 
	d="
M324.101318,110.184723 
	C326.268768,107.421631 325.828552,106.244308 322.494568,106.844223 
	C321.851471,106.959930 321.266907,107.375244 320.625977,107.532974 
	C317.695557,108.254112 314.760315,108.420715 313.444855,105.033424 
	C312.066742,101.484810 313.987213,98.888474 316.819122,97.035980 
	C317.551239,96.557068 318.881104,96.991974 319.936401,97.007111 
	C319.655060,97.979805 319.500122,99.015129 319.057709,99.908012 
	C318.592255,100.847244 317.851868,101.650223 316.905670,102.966003 
	C321.302155,104.408714 328.213654,98.100128 328.857819,107.087006 
	C329.160187,111.305153 326.419830,113.595734 321.518982,113.652672 
	C322.296173,112.567932 323.073395,111.483200 324.101318,110.184723 
z"/>
<path fill="#ECA00D" opacity="1.000000" stroke="none" 
	d="
M273.960541,145.939117 
	C274.000427,144.357635 274.040344,142.776169 273.936157,140.861832 
	C276.582214,139.989563 279.372345,139.450150 282.933899,138.764328 
	C287.796783,138.046646 291.888275,137.475403 295.979767,136.904144 
	C296.188599,138.393463 296.397400,139.882767 296.571411,141.818390 
	C296.041229,142.486282 295.545807,142.707855 294.627747,142.901672 
	C290.990173,143.484482 287.775208,144.095047 284.396912,144.693939 
	C284.233582,144.682251 283.981018,144.890732 283.591614,144.865143 
	C281.707184,145.177612 280.212189,145.515686 278.538971,145.821640 
	C278.360748,145.789520 278.042969,145.963272 277.640228,145.918503 
	C276.441528,146.016129 275.645538,146.158524 274.624695,146.216919 
	C274.399811,146.132950 273.960541,145.939117 273.960541,145.939117 
z"/>
<path fill="#161717" opacity="1.000000" stroke="none" 
	d="
M209.297577,73.995041 
	C210.519623,72.713989 211.521194,71.663231 213.692261,69.385544 
	C210.725800,69.581245 209.268250,69.639351 207.818832,69.780769 
	C204.580017,70.096794 200.944260,70.539360 200.298447,66.254906 
	C199.725266,62.452412 202.264816,60.320736 206.917419,59.037975 
	C206.036591,61.500404 205.439087,63.170765 204.526398,65.722275 
	C206.567078,65.492920 208.206787,65.280815 209.852097,65.129639 
	C213.070633,64.833900 216.220337,65.867104 215.670425,69.358582 
	C215.260056,71.964005 212.573822,74.210968 210.901093,76.617554 
	C210.293091,75.820145 209.685104,75.022736 209.297577,73.995041 
z"/>
<path fill="#161717" opacity="1.000000" stroke="none" 
	d="
M468.309021,115.800461 
	C465.648163,113.089211 463.778320,110.050621 466.740021,107.348068 
	C468.616760,105.635559 472.136353,104.285652 474.442169,104.822365 
	C477.796814,105.603226 479.495667,108.901749 478.900391,112.721657 
	C478.155823,117.499931 473.365173,119.041992 468.309021,115.800461 
M471.553986,108.370323 
	C471.091736,109.720093 470.629486,111.069855 470.167236,112.419624 
	C471.484619,112.677101 472.802032,112.934578 474.119385,113.192055 
	C473.493561,111.619926 472.867706,110.047791 471.553986,108.370323 
z"/>
<path fill="#161717" opacity="1.000000" stroke="none" 
	d="
M216.861176,65.173767 
	C213.877869,62.059910 208.288269,61.207649 209.883835,55.023682 
	C213.087906,54.338402 215.779877,54.452019 217.174561,58.364437 
	C217.623703,59.624382 218.941071,60.591339 219.913986,61.643574 
	C220.959579,62.774410 223.186752,64.427193 222.966583,64.852707 
	C221.504944,67.677681 219.264221,66.767769 216.861176,65.173767 
z"/>
<path fill="#161717" opacity="1.000000" stroke="none" 
	d="
M336.363464,100.722549 
	C335.264526,101.938179 334.151978,103.538399 332.889435,103.667099 
	C329.733856,103.988739 322.853516,96.525482 322.659821,92.711334 
	C326.035980,92.394417 329.200775,91.323288 330.686340,96.334427 
	C331.209717,98.099823 334.341003,99.092064 336.363464,100.722549 
z"/>
<path fill="#262217" opacity="1.000000" stroke="none" 
	d="
M296.046875,136.753372 
	C291.888275,137.475403 287.796783,138.046646 283.307068,138.599670 
	C285.782715,132.617950 286.446930,132.350754 294.681091,134.059296 
	C295.302063,134.254883 295.499939,134.417984 295.860718,135.086533 
	C296.069824,135.808289 296.102722,136.040741 296.135590,136.273193 
	C296.135590,136.273193 296.114014,136.602585 296.046875,136.753372 
z"/>
<path fill="#ECA00D" opacity="1.000000" stroke="none" 
	d="
M268.671326,141.337662 
	C268.220215,141.609711 267.473938,141.835388 266.430786,142.056976 
	C266.881348,141.799026 267.628784,141.545166 268.671326,141.337662 
z"/>
<path fill="#161717" opacity="1.000000" stroke="none" 
	d="
M51.384789,68.218567 
	C51.163357,70.255653 50.962528,71.968376 50.761700,73.681107 
	C53.026619,73.880501 55.291538,74.079895 58.076851,74.325104 
	C58.675400,77.556519 56.148525,78.618378 53.332390,78.884895 
	C50.596279,79.143852 49.101402,79.934113 48.928074,82.975441 
	C48.668411,87.531639 45.764648,89.371681 41.463303,88.887581 
	C37.739803,88.468513 35.951782,86.049232 36.044277,82.379532 
	C36.150848,78.151466 38.447685,76.043709 42.676113,76.043182 
	C43.492565,76.043076 44.309017,76.043167 45.527012,76.043167 
	C45.761662,74.118835 45.633690,72.225273 46.274120,70.642670 
	C47.122288,68.546715 47.683056,64.987038 51.384789,68.218567 
M40.845024,79.478867 
	C37.929775,81.443665 39.562855,83.285744 41.339245,84.524864 
	C42.109528,85.062172 43.779789,84.309280 45.041264,84.142418 
	C44.332603,82.683395 43.678982,81.192703 42.871902,79.790329 
	C42.696655,79.485832 41.971050,79.498077 40.845024,79.478867 
z"/>
<path fill="#161616" opacity="1.000000" stroke="none" 
	d="
M164.985962,118.994720 
	C165.572632,121.601120 166.303116,124.112038 161.893799,123.540352 
	C158.180420,123.058899 156.334930,124.894165 156.679611,128.780792 
	C156.755707,129.638931 156.351471,130.539688 156.168427,131.420822 
	C155.636032,131.627609 155.103653,131.834396 154.571274,132.041183 
	C152.229965,127.161278 149.282990,122.457733 147.790176,117.330780 
	C146.983627,114.560715 150.044662,113.850815 152.671249,114.860321 
	C156.213165,116.221642 159.753616,117.586800 163.906891,118.974945 
	C164.519089,118.999565 164.985962,118.994720 164.985962,118.994720 
z"/>
<path fill="#161717" opacity="1.000000" stroke="none" 
	d="
M61.053421,60.048729 
	C63.519089,62.034386 65.945770,63.654701 68.899605,65.627007 
	C66.934212,66.263313 64.916039,66.916718 62.752674,67.617126 
	C62.349937,68.965714 61.845863,70.653656 61.341785,72.341599 
	C59.874809,71.374298 58.257595,70.572250 56.973019,69.404335 
	C54.511627,67.166481 52.128208,64.816818 49.954128,62.304401 
	C49.277229,61.522156 49.379105,60.066013 49.124466,58.918377 
	C50.317364,59.051201 51.683865,58.863575 52.661724,59.393333 
	C54.063988,60.153008 55.182693,61.436092 56.812000,62.828655 
	C57.723236,60.498428 58.446915,58.647823 59.624832,55.635635 
	C60.349487,57.746468 60.681961,58.714928 61.053421,60.048729 
z"/>
<path fill="#161717" opacity="1.000000" stroke="none" 
	d="
M29.167938,99.590317 
	C27.897335,98.998207 26.530334,98.338097 25.279200,98.511932 
	C22.056625,98.959679 18.730482,99.840408 17.373386,95.689644 
	C16.397196,92.703911 19.652296,88.907677 24.856457,87.554070 
	C23.593124,90.163597 22.645575,92.120857 21.275658,94.950554 
	C23.630199,94.381660 25.159697,93.973259 26.706390,93.646164 
	C30.418409,92.861145 33.911209,94.381454 33.502651,97.926971 
	C33.185089,100.682808 29.789160,103.101440 27.664566,105.587151 
	C27.539555,105.733414 26.175058,105.260994 26.045803,104.862755 
	C25.835852,104.215942 25.930895,103.213577 26.327053,102.681091 
	C27.102869,101.638283 28.174896,100.815849 29.167938,99.590317 
z"/>
<path fill="#ECA00D" opacity="1.000000" stroke="none" 
	d="
M159.977676,112.829117 
	C160.118027,109.482430 160.117325,106.119873 160.490646,102.799385 
	C160.593384,101.885567 161.813217,101.097343 163.095062,100.286377 
	C165.749084,101.633087 167.828522,102.944908 170.050812,104.527130 
	C170.768448,105.865051 171.343231,106.932579 171.917999,108.000107 
	C171.838211,108.415047 171.758423,108.829987 171.402832,109.793976 
	C167.410583,111.171715 163.694138,112.000412 159.977676,112.829117 
z"/>
<path fill="#1B1B18" opacity="1.000000" stroke="none" 
	d="
M172.311279,108.069962 
	C171.343231,106.932579 170.768448,105.865051 170.071198,104.115753 
	C169.338776,98.061737 173.790176,96.471207 177.020950,93.968658 
	C177.020950,93.968658 177.338882,94.080910 177.504089,94.114548 
	C177.766556,94.575508 177.863831,95.002831 178.135803,95.948730 
	C178.430374,96.774414 178.645233,96.984253 178.955078,97.096832 
	C178.955078,97.096832 178.968781,97.028687 178.957703,97.409821 
	C179.092194,98.502533 179.237732,99.214096 179.003754,99.875824 
	C177.150650,100.270012 175.677032,100.714043 174.203430,101.158081 
	C174.956268,102.281891 175.709091,103.405701 176.461914,104.529526 
	C177.654129,103.640182 178.846344,102.750839 180.256851,102.088379 
	C180.968323,103.228691 181.461487,104.142136 181.954666,105.055573 
	C182.233444,105.838493 182.512207,106.621414 182.818207,107.718735 
	C179.465134,108.068695 176.084824,108.104256 172.311279,108.069962 
z"/>
<path fill="#161717" opacity="1.000000" stroke="none" 
	d="
M29.260517,90.730957 
	C28.426050,88.298119 27.936291,85.995583 27.446529,83.693039 
	C30.441431,83.212364 32.889233,83.503265 34.342243,86.853119 
	C34.990078,88.346680 36.840340,89.287560 38.020992,90.591454 
	C38.893116,91.554611 39.564728,92.699341 40.325676,93.763176 
	C38.652718,94.076530 36.766216,95.026329 35.357037,94.553513 
	C33.262600,93.850784 31.505751,92.141907 29.260517,90.730957 
z"/>
<path fill="#181816" opacity="1.000000" stroke="none" 
	d="
M159.727615,112.898880 
	C163.694138,112.000412 167.410583,111.171715 171.391235,110.111267 
	C175.582703,110.875931 175.019821,113.404427 172.888657,115.281082 
	C170.939667,116.997299 168.181564,117.794632 165.382996,118.995811 
	C164.985962,118.994720 164.519089,118.999565 164.286346,119.003014 
	C162.472519,117.238121 160.891434,115.469780 159.149719,113.423019 
	C159.151917,113.085953 159.314743,113.027298 159.727615,112.898880 
z"/>
<path fill="#ECA00D" opacity="1.000000" stroke="none" 
	d="
M156.084549,112.132286 
	C156.175125,112.023293 156.363480,112.069054 156.676437,112.203011 
	C156.807510,112.264572 156.497437,112.374420 156.497437,112.374420 
	C156.497437,112.374420 156.188797,112.260406 156.084549,112.132286 
z"/>
<path fill="#161717" opacity="1.000000" stroke="none" 
	d="
M97.947380,187.971710 
	C97.527588,193.829315 93.034790,193.735352 88.570602,194.121902 
	C87.621132,198.477554 88.279770,204.453323 81.077385,203.857880 
	C77.173470,203.535141 74.981697,201.033829 75.130142,197.202744 
	C75.354057,191.423691 79.720131,190.209198 84.604813,189.861435 
	C84.185120,189.438889 83.765427,189.016357 83.345734,188.593811 
	C85.652863,186.082092 87.959999,183.570358 90.633286,181.028854 
	C90.999428,180.999084 90.992241,180.992004 90.922943,181.347626 
	C90.446350,182.773026 89.657341,183.867264 89.724007,184.906647 
	C89.816841,186.354218 90.550064,187.760727 91.009201,189.184784 
	C93.009155,188.476517 95.009109,187.768250 97.151016,187.226944 
	C97.492523,187.607574 97.710663,187.800171 97.947380,187.971710 
M79.204185,195.952667 
	C80.292229,197.211411 81.380272,198.470154 82.468307,199.728912 
	C83.065964,198.936264 83.663628,198.143616 84.261292,197.350967 
	C82.651939,196.672714 81.042587,195.994461 79.204185,195.952667 
z"/>
<path fill="#161616" opacity="1.000000" stroke="none" 
	d="
M98.310806,187.945175 
	C97.710663,187.800171 97.492523,187.607574 97.073944,186.887497 
	C94.900688,184.584717 92.946472,182.788361 90.992249,180.992004 
	C90.992241,180.992004 90.999428,180.999084 91.003693,181.003693 
	C89.723267,178.895813 88.438560,176.783325 87.064926,174.341309 
	C91.026222,173.944351 95.076454,173.876938 99.588997,173.896729 
	C101.095009,175.319183 101.943161,176.906830 103.241867,177.912888 
	C104.358391,178.777832 105.989273,178.978821 107.392715,179.473404 
	C107.394066,179.942062 107.395424,180.410721 107.396774,180.879379 
	C105.690582,181.454605 103.984398,182.029846 103.662315,182.138443 
	C101.453827,184.697632 100.064026,186.308136 98.310806,187.945175 
z"/>
<path fill="#ECA00D" opacity="1.000000" stroke="none" 
	d="
M356.107483,217.767502 
	C354.934784,218.044342 353.860260,218.005539 352.384216,218.011169 
	C351.982727,218.055618 351.820007,217.860336 351.765686,217.745422 
	C353.398010,214.807297 354.317657,210.958649 360.020691,211.771530 
	C358.423676,214.149384 357.314667,215.800629 356.107483,217.767502 
z"/>
<path fill="#090B09" opacity="1.000000" stroke="none" 
	d="
M295.050385,142.929428 
	C295.545807,142.707855 296.041229,142.486282 296.775879,142.131866 
	C313.835419,139.868149 330.613770,137.291321 347.485321,135.705322 
	C376.726227,132.956573 406.011902,131.825043 434.655518,140.278687 
	C445.775574,143.560532 456.079376,148.681198 463.175110,158.448685 
	C469.007233,166.476807 468.192474,175.859894 461.190735,182.899872 
	C453.502380,190.630234 443.676422,194.353195 433.398865,196.684006 
	C425.645813,198.442276 417.648712,199.124435 408.987152,200.319199 
	C407.530182,200.455429 406.846344,200.558044 406.162476,200.660675 
	C404.972565,200.599380 403.782623,200.538086 401.757568,200.511734 
	C398.645569,200.598740 396.368683,200.650803 394.091827,200.702881 
	C394.091827,200.702881 394.048462,200.404877 393.998840,199.876434 
	C393.935303,198.567963 393.921356,197.787949 394.214783,196.862869 
	C397.661041,193.761429 400.799896,190.805069 405.545868,186.335007 
	C397.637939,188.703613 395.545166,185.075668 395.454651,179.145950 
	C394.858124,179.275711 394.261566,179.405457 393.665009,179.535217 
	C393.019501,181.749557 392.373962,183.963913 391.658783,186.417191 
	C389.327789,184.681885 386.992004,182.943008 384.656189,181.204132 
	C384.227753,181.529068 383.799316,181.854004 383.370880,182.178940 
	C384.257721,184.482315 385.144592,186.785675 385.679871,189.152069 
	C383.890320,191.202240 382.495483,193.222610 380.999664,195.165207 
	C379.942139,196.538589 378.747772,197.806641 377.230530,199.163162 
	C375.562317,199.190094 374.278137,199.175552 372.993927,199.160995 
	C355.208466,195.708588 337.446503,191.898987 321.084808,183.914276 
	C306.937927,177.010452 293.312469,169.038116 279.365204,160.954941 
	C279.505859,159.231628 279.737854,158.091461 280.298096,156.817932 
	C286.713959,154.116516 287.488892,152.577530 286.373199,146.045746 
	C290.245483,146.988983 293.414673,146.965012 295.050385,142.929428 
z"/>
<path fill="#F5A50E" opacity="1.000000" stroke="none" 
	d="
M372.901245,199.492950 
	C374.278137,199.175552 375.562317,199.190094 377.613068,199.353546 
	C380.942108,199.609299 383.504608,199.716125 386.447937,199.909683 
	C387.865265,199.978912 388.901825,199.961411 390.275146,200.070633 
	C391.077454,200.307770 391.542999,200.418167 392.008545,200.528564 
	C389.762512,201.549164 387.516479,202.569763 384.427002,203.973618 
	C384.466492,203.811859 384.402222,204.814331 383.985901,205.639099 
	C382.802246,207.983932 381.945831,211.517059 380.076569,212.215088 
	C378.064453,212.966476 374.623962,211.617752 372.577972,210.126862 
	C369.881287,208.161850 369.977509,204.978210 371.686981,202.038177 
	C372.102020,201.324356 372.436859,200.563904 372.901245,199.492950 
M378.914978,204.495071 
	C377.617035,204.346466 376.319092,204.197861 375.021179,204.049240 
	C375.203003,205.235779 374.998230,206.779266 375.673279,207.510406 
	C376.374634,208.270050 377.926819,208.244095 379.106934,208.561691 
	C379.203217,207.365570 379.299530,206.169464 378.914978,204.495071 
z"/>
<path fill="#F5A50E" opacity="1.000000" stroke="none" 
	d="
M278.009277,161.041306 
	C275.363983,161.909164 272.415649,162.331299 270.203186,163.835724 
	C269.121277,164.571396 269.408661,167.320801 269.035156,169.386276 
	C263.983643,165.163803 260.243011,155.687683 262.238403,151.475494 
	C267.772797,154.495270 272.891052,157.768280 278.009277,161.041306 
z"/>
<path fill="#12120D" opacity="1.000000" stroke="none" 
	d="
M278.257507,161.045471 
	C272.891052,157.768280 267.772797,154.495270 262.318878,151.154266 
	C261.410645,150.539261 260.838135,149.992249 259.492889,148.706970 
	C264.514130,147.816437 268.875793,147.042892 273.598999,146.104218 
	C273.960541,145.939117 274.399811,146.132950 274.439636,146.487610 
	C272.153259,152.055542 272.911560,153.451767 279.969849,156.951309 
	C279.737854,158.091461 279.505859,159.231628 279.137634,160.695984 
	C279.001404,161.020172 278.505737,161.049637 278.257507,161.045471 
z"/>
<path fill="#FDAA0E" opacity="1.000000" stroke="none" 
	d="
M374.238525,218.741028 
	C373.192657,219.163116 372.375183,219.336594 371.303070,219.696259 
	C370.594604,219.827133 370.140808,219.771805 369.343536,219.455200 
	C369.000092,219.193924 368.913330,218.871033 368.825470,218.602722 
	C368.157684,217.888382 367.577728,217.442352 366.998901,216.998169 
	C367.000000,217.000000 367.003662,217.001480 367.003662,217.001480 
	C365.791351,215.780609 364.304840,214.725479 363.440002,213.294586 
	C362.479248,211.704910 361.975281,209.797455 361.561035,207.963165 
	C361.497467,207.681671 363.172546,206.496597 363.720459,206.682343 
	C365.464905,207.273666 367.206726,208.117767 368.670532,209.231094 
	C370.587219,210.688904 372.493927,212.309250 373.898743,214.229935 
	C374.641785,215.245819 374.312225,217.046204 374.238525,218.741028 
z"/>
<path fill="#ECA00D" opacity="1.000000" stroke="none" 
	d="
M182.153870,104.740326 
	C181.461487,104.142136 180.968323,103.228691 180.253571,101.825661 
	C179.815750,100.865936 179.599503,100.395798 179.383270,99.925667 
	C179.237732,99.214096 179.092194,98.502533 178.927155,97.426399 
	C183.040619,98.119759 183.567307,100.865112 182.153870,104.740326 
z"/>
<path fill="#ECA00D" opacity="1.000000" stroke="none" 
	d="
M368.913330,218.871033 
	C368.913330,218.871033 369.000092,219.193924 369.013947,219.360535 
	C366.288605,219.338135 363.549438,219.149155 360.410522,218.840530 
	C362.086395,218.150604 364.162018,217.580307 366.620636,217.005737 
	C367.003662,217.001480 367.000000,217.000000 367.093384,217.271255 
	C367.762299,217.985352 368.337799,218.428192 368.913330,218.871033 
z"/>
<path fill="#1B1B18" opacity="1.000000" stroke="none" 
	d="
M392.331665,200.468079 
	C391.542999,200.418167 391.077454,200.307770 390.369507,199.757233 
	C391.083496,198.544327 392.039917,197.771545 393.224121,197.001831 
	C393.451904,197.004868 393.907440,197.007935 393.907440,197.007935 
	C393.921356,197.787949 393.935303,198.567963 393.938629,199.738419 
	C393.503632,200.221771 393.079193,200.314697 392.331665,200.468079 
z"/>
<path fill="#F5A50E" opacity="1.000000" stroke="none" 
	d="
M394.437531,200.767273 
	C396.368683,200.650803 398.645569,200.598740 401.333130,200.661179 
	C399.423615,200.794342 397.103424,200.813004 394.437531,200.767273 
z"/>
<path fill="#F5A50E" opacity="1.000000" stroke="none" 
	d="
M406.387329,200.726028 
	C406.846344,200.558044 407.530182,200.455429 408.551392,200.452881 
	C408.129883,200.632416 407.371002,200.711899 406.387329,200.726028 
z"/>
<path fill="#090B09" opacity="1.000000" stroke="none" 
	d="
M296.359436,136.295258 
	C296.102722,136.040741 296.069824,135.808289 295.997559,135.224121 
	C296.191071,135.130295 296.423981,135.388168 296.807251,135.857025 
	C296.957642,136.067993 296.583252,136.317337 296.359436,136.295258 
z"/>
<path fill="#ECA00D" opacity="1.000000" stroke="none" 
	d="
M178.881577,96.892990 
	C178.645233,96.984253 178.430374,96.774414 178.296173,96.236771 
	C178.503891,96.197922 178.679306,96.425568 178.881577,96.892990 
z"/>
<path fill="#0F0F0B" opacity="1.000000" stroke="none" 
	d="
M176.996002,93.596313 
	C173.790176,96.471207 169.338776,98.061737 169.928345,103.845352 
	C167.828522,102.944908 165.749084,101.633087 163.397278,100.128510 
	C162.881805,95.671654 162.441772,91.407089 162.451859,87.143593 
	C162.461639,83.002251 163.397629,78.824783 163.069672,74.731873 
	C162.749847,70.740936 164.078262,68.410698 168.605713,66.568504 
	C170.551178,72.955215 172.455566,79.207100 174.587952,85.748215 
	C175.534302,88.432953 176.252670,90.828461 176.996002,93.596313 
z"/>
<path fill="#2A210E" opacity="1.000000" stroke="none" 
	d="
M142.391083,16.979797 
	C142.559189,16.177769 142.727295,15.375742 143.156052,14.177383 
	C143.440857,13.451192 143.318787,13.191743 143.050461,13.002707 
	C143.601929,12.472820 144.153412,11.942934 144.902985,12.009840 
	C145.604843,13.551162 146.108612,14.495691 146.612381,15.440220 
	C147.086945,14.912075 147.561493,14.383931 148.036057,13.855787 
	C149.920364,13.642210 151.804657,13.428633 153.760498,13.692484 
	C153.242874,15.788838 152.653732,17.407764 152.064590,19.026690 
	C152.048553,20.077560 152.032516,21.128429 151.672012,22.496584 
	C150.281219,23.487202 149.186966,24.098055 148.202881,24.852560 
	C147.329422,25.522253 146.578217,26.351429 145.773056,27.110207 
	C144.594009,26.337080 143.414978,25.563953 142.135498,24.724970 
	C142.135498,22.778908 142.135498,20.753717 142.332230,18.274296 
	C142.694412,17.506441 142.648453,17.226353 142.391083,16.979797 
z"/>
<path fill="#2A210E" opacity="1.000000" stroke="none" 
	d="
M199.156403,11.180294 
	C201.228409,12.024320 202.897110,12.848781 205.605026,14.186694 
	C202.888016,16.977251 200.082291,19.858917 196.792328,23.237926 
	C195.182526,20.843702 193.273788,18.527067 192.055069,15.891373 
	C191.661758,15.040763 190.579742,11.464738 194.631317,12.696554 
	C195.746521,13.035610 197.365372,11.718111 199.156403,11.180294 
z"/>
<path fill="#453511" opacity="1.000000" stroke="none" 
	d="
M145.654968,27.446920 
	C146.578217,26.351429 147.329422,25.522253 148.202881,24.852560 
	C149.186966,24.098055 150.281219,23.487202 151.603653,22.885788 
	C152.147980,25.451056 153.528564,28.894613 152.410355,30.203653 
	C150.923325,31.944487 147.489288,32.022167 143.400620,33.269138 
	C144.363815,30.795839 144.950333,29.289738 145.654968,27.446920 
z"/>
<path fill="#513C12" opacity="1.000000" stroke="none" 
	d="
M152.383789,19.163280 
	C152.653732,17.407764 153.242874,15.788838 154.048645,13.904610 
	C155.354797,15.107004 156.444321,16.574701 158.467300,19.299873 
	C155.482819,19.299873 154.092896,19.299873 152.383789,19.163280 
z"/>
<path fill="#513C12" opacity="1.000000" stroke="none" 
	d="
M147.916595,13.569386 
	C147.561493,14.383931 147.086945,14.912075 146.612381,15.440220 
	C146.108612,14.495691 145.604843,13.551162 145.071335,12.262152 
	C145.960098,12.372774 146.878616,12.827879 147.916595,13.569386 
z"/>
<path fill="#513C12" opacity="1.000000" stroke="none" 
	d="
M143.057098,13.276372 
	C143.318787,13.191743 143.440857,13.451192 143.348694,13.916886 
	C143.208389,13.885159 143.136078,13.717599 143.057098,13.276372 
z"/>
<path fill="#513C12" opacity="1.000000" stroke="none" 
	d="
M142.328308,17.237175 
	C142.648453,17.226353 142.694412,17.506441 142.409470,17.921947 
	C142.281830,17.847404 142.273682,17.670979 142.328308,17.237175 
z"/>
<path fill="#0E0E0A" opacity="1.000000" stroke="none" 
	d="
M273.366119,15.173083 
	C280.847015,15.558110 284.012299,17.884628 284.913239,24.716984 
	C285.578583,29.762451 285.657959,35.021969 285.041077,40.069107 
	C283.999542,48.590248 280.963745,50.848404 272.433228,50.742332 
	C270.466217,50.717873 268.501495,50.512756 266.014252,50.358418 
	C266.014252,40.291985 265.629791,30.507906 266.329651,20.802015 
	C266.474457,18.793442 270.650665,17.075558 273.366119,15.173083 
z"/>
<path fill="#3D2E10" opacity="1.000000" stroke="none" 
	d="
M247.662537,27.779060 
	C248.460724,26.709024 249.258911,25.638990 250.405228,24.057379 
	C252.562485,22.345045 254.371597,21.144291 256.180725,19.943539 
	C257.495483,23.715673 258.810242,27.487808 260.042725,31.023907 
	C259.133911,31.344578 257.372711,31.965998 255.419403,32.907532 
	C255.227249,33.227642 255.272232,33.146614 254.896454,33.154358 
	C252.756577,33.092941 250.992477,33.023777 249.193268,32.907646 
	C249.158173,32.860680 248.940521,32.942928 248.940521,32.942932 
	C248.675217,32.488304 248.409912,32.033672 248.097382,31.127796 
	C248.050140,30.676552 248.023834,30.250872 248.319336,30.139668 
	C249.003052,29.542526 249.391266,29.056593 250.330399,27.881083 
	C249.086365,28.365250 248.601105,28.554115 247.995621,28.505241 
	C247.804459,28.104691 247.733505,27.941877 247.662537,27.779060 
z"/>
<path fill="#211B0D" opacity="1.000000" stroke="none" 
	d="
M295.871552,31.928272 
	C294.373199,31.436031 292.874817,30.943790 291.392944,30.456959 
	C291.668945,26.084934 291.944427,21.721582 292.325531,15.685151 
	C294.715851,18.572371 296.268219,20.447435 297.704041,22.741726 
	C298.123535,24.618065 298.659576,26.075174 298.974426,27.774776 
	C298.530975,29.027973 298.308685,30.038675 297.763153,31.060263 
	C296.917145,31.356855 296.394348,31.642565 295.871552,31.928272 
z"/>
<path fill="#12120D" opacity="1.000000" stroke="none" 
	d="
M256.129974,19.564671 
	C254.371597,21.144291 252.562485,22.345045 250.490631,23.726440 
	C248.506149,22.707619 245.560272,21.957598 247.605515,19.008781 
	C248.784973,17.308214 250.514359,15.108784 252.221146,14.890217 
	C254.103760,14.649129 256.745575,15.990132 256.129974,19.564671 
z"/>
<path fill="#ECA00D" opacity="1.000000" stroke="none" 
	d="
M240.829529,42.023350 
	C240.900818,37.653461 240.972092,33.283573 241.113159,28.452711 
	C242.275009,29.533106 243.367050,31.074471 244.729156,33.170033 
	C244.715134,37.129124 244.431046,40.534016 244.146942,43.938911 
	C243.406738,43.945210 242.666519,43.951508 241.556244,43.951263 
	C241.186172,43.944721 240.984024,43.957619 240.967957,43.664177 
	C240.911118,42.921604 240.870331,42.472477 240.829529,42.023350 
z"/>
<path fill="#D79308" opacity="1.000000" stroke="none" 
	d="
M244.406036,44.021866 
	C244.431046,40.534016 244.715134,37.129124 244.994476,33.372204 
	C245.156235,33.011482 245.322708,33.002785 245.677017,33.295837 
	C247.199295,34.410522 248.533768,35.223454 249.950027,36.360390 
	C249.731918,38.258198 248.659348,40.196232 251.511627,40.410511 
	C250.586090,41.402321 249.838181,42.183975 249.090256,42.965630 
	C248.211670,43.501595 247.333069,44.037556 246.225800,44.786079 
	C245.997147,44.998642 246.013657,45.011395 246.013657,45.011391 
	C245.564148,44.709198 245.114639,44.407009 244.406036,44.021866 
M247.403427,36.833801 
	C247.512009,36.734489 247.620575,36.635174 247.729156,36.535877 
	C247.625580,36.431561 247.523758,36.247597 247.417953,36.245255 
	C247.311447,36.242901 247.200928,36.421150 247.403427,36.833801 
z"/>
<path fill="#453511" opacity="1.000000" stroke="none" 
	d="
M249.329071,43.181793 
	C249.838181,42.183975 250.586090,41.402321 251.834869,40.362450 
	C252.550461,40.067387 252.765152,40.030544 253.188568,40.264641 
	C254.553543,40.964989 255.709824,41.394402 256.959045,41.926662 
	C257.051971,42.029514 257.265686,42.206142 257.265686,42.206142 
	C256.498871,42.889698 255.732040,43.573254 254.475281,44.586220 
	C253.236572,45.037354 252.487793,45.159088 251.738998,45.280815 
	C251.015305,44.653194 250.291595,44.025578 249.329071,43.181793 
z"/>
<path fill="#2A210E" opacity="1.000000" stroke="none" 
	d="
M299.195618,27.532286 
	C298.659576,26.075174 298.123535,24.618065 297.843262,23.061226 
	C299.446503,22.653103 300.794037,22.344709 302.419495,22.361305 
	C302.317139,23.803812 301.936859,24.921331 301.556580,26.038847 
	C301.735138,26.471220 301.913727,26.903599 301.837250,27.799118 
	C301.091156,28.456379 300.600098,28.650499 300.018433,28.661575 
	C299.683746,28.163116 299.439697,27.847702 299.195618,27.532286 
z"/>
<path fill="#A6740E" opacity="1.000000" stroke="none" 
	d="
M249.228363,32.954617 
	C250.992477,33.023777 252.756577,33.092941 254.872986,33.473518 
	C256.191803,34.616219 257.158325,35.447502 258.124847,36.278786 
	C258.124847,36.278790 258.154419,36.661610 257.731995,36.896603 
	C256.243530,37.733055 255.177444,38.334518 253.872589,38.984859 
	C253.633820,39.033737 253.146896,39.053459 253.115997,38.653931 
	C252.051361,37.089443 251.017654,35.924484 249.799957,34.306240 
	C249.486771,33.553509 249.357559,33.254063 249.228363,32.954617 
z"/>
<path fill="#8B610D" opacity="1.000000" stroke="none" 
	d="
M251.725159,45.642845 
	C252.487793,45.159088 253.236572,45.037354 254.369202,44.893379 
	C254.027496,46.700394 259.664246,47.420265 255.001221,50.125961 
	C254.203186,50.619469 254.021393,50.815670 253.839813,50.776367 
	C253.840042,50.540867 254.009552,50.101433 253.885529,49.763184 
	C252.913269,48.983150 252.065018,48.541370 251.216782,48.099594 
	C251.381622,47.401352 251.546478,46.703114 251.725159,45.642845 
z"/>
<path fill="#8B610D" opacity="1.000000" stroke="none" 
	d="
M301.920044,25.938040 
	C301.936859,24.921331 302.317139,23.803812 302.776550,22.399822 
	C304.817291,23.685318 304.547394,24.914444 301.920044,25.938040 
z"/>
<path fill="#12120D" opacity="1.000000" stroke="none" 
	d="
M254.111374,38.935982 
	C255.177444,38.334518 256.243530,37.733055 257.652710,37.071434 
	C257.995819,37.011276 258.165436,37.480427 257.834778,37.918823 
	C257.339264,39.211872 257.174408,40.066528 256.717041,40.837566 
	C255.653458,40.147961 254.882416,39.541973 254.111374,38.935982 
z"/>
<path fill="#211B0D" opacity="1.000000" stroke="none" 
	d="
M254.008865,51.026962 
	C252.608017,51.809784 251.207169,52.592606 249.806305,53.375423 
	C249.637100,53.129681 249.467896,52.883934 249.298676,52.638187 
	C249.671783,52.162228 250.044891,51.686268 251.016418,51.048645 
	C252.413071,50.625134 253.211304,50.363285 254.009552,50.101433 
	C254.009552,50.101433 253.840042,50.540867 253.877472,50.795135 
	C253.914917,51.049400 254.008865,51.026958 254.008865,51.026962 
z"/>
<path fill="#A6740E" opacity="1.000000" stroke="none" 
	d="
M294.939026,49.101456 
	C295.154938,50.420425 295.062805,51.703674 294.970642,52.986927 
	C294.458496,52.899628 293.946381,52.812332 293.434235,52.725033 
	C293.833130,51.505268 294.232056,50.285500 294.939026,49.101456 
z"/>
<path fill="#D79308" opacity="1.000000" stroke="none" 
	d="
M245.987152,44.993565 
	C246.604218,45.481766 247.231277,45.975044 247.858322,46.468319 
	C247.479736,46.755024 247.101151,47.041729 246.722565,47.328434 
	C246.325577,46.610222 245.928589,45.892010 245.772629,45.092598 
	C246.013657,45.011395 245.997147,44.998642 245.987152,44.993565 
z"/>
<path fill="#453511" opacity="1.000000" stroke="none" 
	d="
M258.403381,36.067627 
	C257.158325,35.447502 256.191803,34.616219 255.248749,33.465775 
	C255.272232,33.146614 255.227249,33.227642 255.204300,33.222633 
	C256.348206,34.097240 257.515045,34.976856 258.403381,36.067627 
z"/>
<path fill="#D79308" opacity="1.000000" stroke="none" 
	d="
M253.885529,49.763184 
	C253.211304,50.363285 252.413071,50.625134 251.293976,50.885017 
	C250.953888,50.013809 250.934647,49.144573 251.066101,48.187462 
	C252.065018,48.541370 252.913269,48.983150 253.885529,49.763184 
z"/>
<path fill="#8B610D" opacity="1.000000" stroke="none" 
	d="
M249.193268,32.907646 
	C249.357559,33.254063 249.486771,33.553509 249.775635,34.626110 
	C249.912949,35.611641 249.890579,35.824017 249.868225,36.036388 
	C248.533768,35.223454 247.199295,34.410522 245.927094,33.295715 
	C246.727585,32.951759 247.465851,32.909683 248.572311,32.905266 
	C248.940521,32.942928 249.158173,32.860680 249.193268,32.907646 
z"/>
<path fill="#D79308" opacity="1.000000" stroke="none" 
	d="
M296.049774,32.118832 
	C296.394348,31.642565 296.917145,31.356855 297.970825,31.089836 
	C298.501678,31.108524 298.917389,31.051426 298.970703,31.089018 
	C299.024017,31.126610 298.947998,31.232647 298.947998,31.232645 
	C299.053833,31.792456 299.159637,32.352268 298.827209,33.308167 
	C297.909454,33.697517 297.429901,33.690788 296.950378,33.684059 
	C296.709595,33.225834 296.468811,32.767612 296.049774,32.118832 
z"/>
<path fill="#8B610D" opacity="1.000000" stroke="none" 
	d="
M248.023834,30.250872 
	C248.023834,30.250872 248.050140,30.676552 247.983017,30.878984 
	C247.600952,29.989761 247.286011,28.898106 247.316803,27.792755 
	C247.733505,27.941877 247.804459,28.104691 247.974213,28.756109 
	C248.056625,29.580101 248.040222,29.915487 248.023834,30.250872 
z"/>
<path fill="#453511" opacity="1.000000" stroke="none" 
	d="
M296.686157,33.896767 
	C297.429901,33.690788 297.909454,33.697517 298.726013,33.578400 
	C298.262970,34.167965 297.462830,34.883381 296.662720,35.598793 
	C296.582458,35.102352 296.502197,34.605907 296.686157,33.896767 
z"/>
<path fill="#8B610D" opacity="1.000000" stroke="none" 
	d="
M300.109039,28.844612 
	C300.600098,28.650499 301.091156,28.456379 301.822235,28.149689 
	C301.537415,28.754953 301.012543,29.472788 300.218140,30.210688 
	C299.948608,30.230751 299.826630,30.277304 299.910034,29.921654 
	C300.031982,29.325537 300.070496,29.085073 300.109039,28.844612 
z"/>
<path fill="#513C12" opacity="1.000000" stroke="none" 
	d="
M257.009583,40.921181 
	C257.174408,40.066528 257.339264,39.211872 257.773712,38.160671 
	C258.043335,37.964123 258.327148,37.759388 258.337036,38.131691 
	C258.308868,38.715427 258.270782,38.926868 258.232727,39.138306 
	C258.076172,40.012054 257.919617,40.885803 257.514343,41.982845 
	C257.265686,42.206142 257.051971,42.029514 256.967804,41.696815 
	C256.883636,41.364120 257.009583,40.921181 257.009583,40.921181 
z"/>
<path fill="#3D2E10" opacity="1.000000" stroke="none" 
	d="
M294.617371,43.661865 
	C294.379578,43.206028 294.435730,42.668442 294.491882,42.130856 
	C294.775787,42.218948 295.059692,42.307041 295.343567,42.395134 
	C295.199463,42.790127 295.055389,43.185123 294.617371,43.661865 
z"/>
<path fill="#211B0D" opacity="1.000000" stroke="none" 
	d="
M299.924774,30.169971 
	C299.762543,30.432289 299.624146,30.755388 299.216888,31.155567 
	C298.947998,31.232647 299.024017,31.126610 299.004150,30.859734 
	C299.215759,30.356009 299.496521,30.250824 299.826630,30.277304 
	C299.826630,30.277304 299.948608,30.230751 299.924774,30.169971 
z"/>
<path fill="#A6740E" opacity="1.000000" stroke="none" 
	d="
M258.391907,39.043503 
	C258.270782,38.926868 258.308868,38.715427 258.490723,38.215340 
	C258.606689,38.267361 258.578918,38.608028 258.391907,39.043503 
z"/>
<path fill="#513C12" opacity="1.000000" stroke="none" 
	d="
M254.271744,50.957428 
	C254.008865,51.026958 253.914917,51.049400 253.877258,51.030632 
	C254.021393,50.815670 254.203186,50.619469 254.727829,50.214828 
	C254.891983,50.300232 254.713303,50.594063 254.271744,50.957428 
z"/>
<path fill="#0B0C0A" opacity="1.000000" stroke="none" 
	d="
M421.428101,3.779361 
	C422.193481,3.738785 422.908173,3.672738 423.097748,3.956953 
	C423.934479,5.211420 424.619965,6.566741 425.360229,7.885541 
	C424.489014,8.107730 422.937683,8.668365 422.853394,8.498978 
	C422.130310,7.045917 421.672668,5.460781 421.428101,3.779361 
z"/>
<path fill="#090B09" opacity="1.000000" stroke="none" 
	d="
M240.573914,41.832138 
	C240.870331,42.472477 240.911118,42.921604 240.873672,43.701180 
	C240.482681,44.125690 240.172668,44.290203 239.856705,44.302490 
	C237.644958,44.388493 235.431976,44.443043 233.219391,44.507656 
	C233.768478,42.458481 234.317551,40.409302 235.149704,37.303741 
	C237.662613,39.412434 238.990463,40.526680 240.573914,41.832138 
z"/>
<path fill="#090B09" opacity="1.000000" stroke="none" 
	d="
M223.364960,55.635254 
	C223.262985,54.134624 223.404831,52.878860 223.546677,51.623093 
	C224.578964,51.866962 225.918961,51.803154 226.557022,52.441231 
	C227.195084,53.079334 227.131226,54.419312 227.375061,55.451614 
	C226.119629,55.594444 224.864197,55.737278 223.364960,55.635254 
z"/>
<path fill="#0B0C0A" opacity="1.000000" stroke="none" 
	d="
M300.933014,132.128601 
	C300.471191,132.193253 300.226532,132.217239 300.157440,132.118439 
	C299.277893,130.860687 298.423553,129.585327 297.562805,128.314423 
	C298.404236,128.026245 299.245667,127.738068 300.087097,127.449890 
	C300.468658,128.976883 300.850189,130.503876 300.933014,132.128601 
z"/>
<path fill="#F7A302" opacity="1.000000" stroke="none" 
	d="
M184.670471,89.566498 
	C185.446762,89.464249 186.176010,89.302956 186.376495,89.557739 
	C187.393326,90.849838 188.272919,92.249931 189.200623,93.612167 
	C188.353043,93.910309 186.861511,94.609459 186.758438,94.443947 
	C185.827164,92.948555 185.139008,91.301758 184.670471,89.566498 
z"/>
<path fill="#090B09" opacity="1.000000" stroke="none" 
	d="
M347.960388,74.353233 
	C349.947357,76.125816 351.902344,78.262131 353.933014,80.737862 
	C351.564911,81.693497 348.281647,83.610817 346.836853,82.678665 
	C342.725220,80.025871 348.238586,77.564110 347.960388,74.353233 
z"/>
<path fill="#0B0C0A" opacity="1.000000" stroke="none" 
	d="
M335.611115,91.551384 
	C336.604523,90.409943 337.735687,89.585670 338.866852,88.761383 
	C339.354370,90.170166 339.841888,91.578957 340.329407,92.987747 
	C338.802551,92.614685 337.275726,92.241623 335.611115,91.551384 
z"/>
<path fill="#0B0C0A" opacity="1.000000" stroke="none" 
	d="
M459.692322,119.584412 
	C460.861786,119.213760 462.144409,118.734543 462.903259,119.169373 
	C463.919708,119.751785 464.633514,120.986404 465.223328,122.078156 
	C465.332794,122.280815 464.155426,123.655182 463.721130,123.583618 
	C462.528381,123.387085 461.285309,122.880890 460.321869,122.153336 
	C459.798767,121.758331 459.804840,120.662567 459.692322,119.584412 
z"/>
<path fill="#1B1B18" opacity="1.000000" stroke="none" 
	d="
M280.298096,156.817932 
	C272.911560,153.451767 272.153259,152.055542 274.664520,146.571579 
	C275.645538,146.158524 276.441528,146.016129 277.485840,146.247177 
	C277.577362,147.082260 277.165527,147.652130 277.307587,147.987000 
	C277.951508,149.504745 278.629364,151.045868 279.593018,152.360092 
	C279.799988,152.642349 281.243774,152.017746 282.117798,151.810883 
	C281.540833,150.416336 281.047516,148.978195 280.352539,147.645172 
	C279.991272,146.952194 279.273773,146.444916 278.717194,145.853760 
	C280.212189,145.515686 281.707184,145.177612 283.804443,145.069153 
	C284.941162,145.529480 285.475586,145.760208 286.005463,145.994171 
	C286.000916,145.997391 286.015411,145.981964 286.015411,145.981964 
	C287.488892,152.577530 286.713959,154.116516 280.298096,156.817932 
z"/>
<path fill="#0B0C0A" opacity="1.000000" stroke="none" 
	d="
M278.538971,145.821640 
	C279.273773,146.444916 279.991272,146.952194 280.352539,147.645172 
	C281.047516,148.978195 281.540833,150.416336 282.117798,151.810883 
	C281.243774,152.017746 279.799988,152.642349 279.593018,152.360092 
	C278.629364,151.045868 277.951508,149.504745 277.307587,147.987000 
	C277.165527,147.652130 277.577362,147.082260 277.888550,146.291946 
	C278.042969,145.963272 278.360748,145.789520 278.538971,145.821640 
z"/>
<path fill="#262217" opacity="1.000000" stroke="none" 
	d="
M294.627747,142.901672 
	C293.414673,146.965012 290.245483,146.988983 286.373199,146.045746 
	C286.015411,145.981964 286.000916,145.997391 285.787201,145.755234 
	C285.235748,145.243927 284.898010,144.974777 284.560272,144.705627 
	C287.775208,144.095047 290.990173,143.484482 294.627747,142.901672 
z"/>
<path fill="#090B09" opacity="1.000000" stroke="none" 
	d="
M284.396912,144.693939 
	C284.898010,144.974777 285.235748,145.243927 285.791748,145.752014 
	C285.475586,145.760208 284.941162,145.529480 284.193878,145.094742 
	C283.981018,144.890732 284.233582,144.682251 284.396912,144.693939 
z"/>
<path fill="#0B0C0A" opacity="1.000000" stroke="none" 
	d="
M471.897919,108.422989 
	C472.867706,110.047791 473.493561,111.619926 474.119385,113.192055 
	C472.802032,112.934578 471.484619,112.677101 470.167236,112.419624 
	C470.629486,111.069855 471.091736,109.720093 471.897919,108.422989 
z"/>
<path fill="#0B0C0A" opacity="1.000000" stroke="none" 
	d="
M41.171978,79.421646 
	C41.971050,79.498077 42.696655,79.485832 42.871902,79.790329 
	C43.678982,81.192703 44.332603,82.683395 45.041264,84.142418 
	C43.779789,84.309280 42.109528,85.062172 41.339245,84.524864 
	C39.562855,83.285744 37.929775,81.443665 41.171978,79.421646 
z"/>
<path fill="#0B0C0A" opacity="1.000000" stroke="none" 
	d="
M179.003754,99.875824 
	C179.599503,100.395798 179.815750,100.865936 180.035278,101.598785 
	C178.846344,102.750839 177.654129,103.640182 176.461914,104.529526 
	C175.709091,103.405701 174.956268,102.281891 174.203430,101.158081 
	C175.677032,100.714043 177.150650,100.270012 179.003754,99.875824 
z"/>
<path fill="#090B09" opacity="1.000000" stroke="none" 
	d="
M90.922943,181.347626 
	C92.946472,182.788361 94.900688,184.584717 96.931992,186.720520 
	C95.009109,187.768250 93.009155,188.476517 91.009201,189.184784 
	C90.550064,187.760727 89.816841,186.354218 89.724007,184.906647 
	C89.657341,183.867264 90.446350,182.773026 90.922943,181.347626 
z"/>
<path fill="#0B0C0A" opacity="1.000000" stroke="none" 
	d="
M79.318710,195.634445 
	C81.042587,195.994461 82.651939,196.672714 84.261292,197.350967 
	C83.663628,198.143616 83.065964,198.936264 82.468307,199.728912 
	C81.380272,198.470154 80.292229,197.211411 79.318710,195.634445 
z"/>
<path fill="#161616" opacity="1.000000" stroke="none" 
	d="
M394.214783,196.862869 
	C393.907440,197.007935 393.451904,197.004868 393.199005,196.642578 
	C390.933655,194.185760 388.921173,192.091202 386.747192,189.859802 
	C386.379974,189.529968 386.195251,189.318665 386.031464,189.089035 
	C385.144592,186.785675 384.257721,184.482315 383.370880,182.178940 
	C383.799316,181.854004 384.227753,181.529068 384.656189,181.204132 
	C386.992004,182.943008 389.327789,184.681885 391.658783,186.417191 
	C392.373962,183.963913 393.019501,181.749557 393.665009,179.535217 
	C394.261566,179.405457 394.858124,179.275711 395.454651,179.145950 
	C395.545166,185.075668 397.637939,188.703613 405.545868,186.335007 
	C400.799896,190.805069 397.661041,193.761429 394.214783,196.862869 
z"/>
<path fill="#1B1B18" opacity="1.000000" stroke="none" 
	d="
M385.679871,189.152069 
	C386.195251,189.318665 386.379974,189.529968 386.682190,190.216568 
	C386.541534,193.747772 386.304321,196.785355 386.067108,199.822952 
	C383.504608,199.716125 380.942108,199.609299 377.997070,199.312073 
	C378.747772,197.806641 379.942139,196.538589 380.999664,195.165207 
	C382.495483,193.222610 383.890320,191.202240 385.679871,189.152069 
z"/>
<path fill="#090B09" opacity="1.000000" stroke="none" 
	d="
M386.447937,199.909683 
	C386.304321,196.785355 386.541534,193.747772 386.843719,190.353424 
	C388.921173,192.091202 390.933655,194.185760 392.971222,196.639542 
	C392.039917,197.771545 391.083496,198.544327 390.032715,199.630493 
	C388.901825,199.961411 387.865265,199.978912 386.447937,199.909683 
z"/>
<path fill="#F4A103" opacity="1.000000" stroke="none" 
	d="
M379.155396,204.734207 
	C379.299530,206.169464 379.203217,207.365570 379.106934,208.561691 
	C377.926819,208.244095 376.374634,208.270050 375.673279,207.510406 
	C374.998230,206.779266 375.203003,205.235779 375.021179,204.049240 
	C376.319092,204.197861 377.617035,204.346466 379.155396,204.734207 
z"/>
<path fill="#F7A302" opacity="1.000000" stroke="none" 
	d="
M368.825470,218.602722 
	C368.337799,218.428192 367.762299,217.985352 367.092285,217.269424 
	C367.577728,217.442352 368.157684,217.888382 368.825470,218.602722 
z"/>
<path fill="#D79308" opacity="1.000000" stroke="none" 
	d="
M248.319336,30.139668 
	C248.040222,29.915487 248.056625,29.580101 248.094421,28.993849 
	C248.601105,28.554115 249.086365,28.365250 250.330399,27.881083 
	C249.391266,29.056593 249.003052,29.542526 248.319336,30.139668 
z"/>
<path fill="#A6740E" opacity="1.000000" stroke="none" 
	d="
M299.910034,29.921654 
	C299.496521,30.250824 299.215759,30.356009 298.950836,30.822140 
	C298.917389,31.051426 298.501678,31.108524 298.294006,31.078953 
	C298.308685,30.038675 298.530975,29.027973 298.974426,27.774776 
	C299.439697,27.847702 299.683746,28.163116 300.018433,28.661570 
	C300.070496,29.085073 300.031982,29.325537 299.910034,29.921654 
z"/>
<path fill="#262217" opacity="1.000000" stroke="none" 
	d="
M249.950027,36.360390 
	C249.890579,35.824017 249.912949,35.611641 249.959625,35.079391 
	C251.017654,35.924484 252.051361,37.089443 253.029694,38.881088 
	C252.974319,39.507774 252.979843,39.993698 252.979843,39.993698 
	C252.765152,40.030544 252.550461,40.067387 252.012512,40.152290 
	C248.659348,40.196232 249.731918,38.258198 249.950027,36.360390 
z"/>
<path fill="#513C12" opacity="1.000000" stroke="none" 
	d="
M247.247803,36.677032 
	C247.200928,36.421150 247.311447,36.242901 247.417953,36.245255 
	C247.523758,36.247597 247.625580,36.431561 247.729156,36.535870 
	C247.620575,36.635174 247.512009,36.734489 247.247803,36.677032 
z"/>
<path fill="#D79308" opacity="1.000000" stroke="none" 
	d="
M253.188568,40.264641 
	C252.979843,39.993698 252.974319,39.507774 253.060608,39.280617 
	C253.146896,39.053459 253.633820,39.033737 253.872589,38.984863 
	C254.882416,39.541973 255.653458,40.147961 256.717041,40.837566 
	C257.009583,40.921181 256.883636,41.364120 256.874878,41.593964 
	C255.709824,41.394402 254.553543,40.964989 253.188568,40.264641 
z"/>
</svg>